<svg fill="none" width="100%" xmlns="http://www.w3.org/2000/svg" style="-webkit-print-color-adjust:exact" viewBox="1504 1001.25 62 57.5" height="100%"><path style="fill:none" d="M1521.5 1018.75h27m-27 9h13.5m-29.25 4.53c0 4.8 3.369 8.982 8.121 9.681 3.387.498 6.81.879 10.269 1.137 1.05.078 2.01.63 2.595 1.503L1535 1057l8.265-12.399a3.421 3.421 0 0 1 2.595-1.503c3.435-.256 6.861-.636 10.269-1.137 4.752-.699 8.121-4.878 8.121-9.684v-18.054c0-4.806-3.369-8.985-8.121-9.684A145.194 145.194 0 0 0 1535 1003c-7.176 0-14.232.525-21.129 1.539-4.752.699-8.121 4.881-8.121 9.684v18.057Z" class="fills"/><g class="strokes"><path stroke-linecap="round" stroke-linejoin="round" style="fill:none;fill-opacity:none;stroke-width:3.5;stroke:#bababa;stroke-opacity:1" d="M1521.5 1018.75h27m-27 9h13.5m-29.25 4.53c0 4.8 3.369 8.982 8.121 9.681 3.387.498 6.81.879 10.269 1.137 1.05.078 2.01.63 2.595 1.503L1535 1057l8.265-12.399a3.421 3.421 0 0 1 2.595-1.503c3.435-.256 6.861-.636 10.269-1.137 4.752-.699 8.121-4.878 8.121-9.684v-18.054c0-4.806-3.369-8.985-8.121-9.684A145.194 145.194 0 0 0 1535 1003c-7.176 0-14.232.525-21.129 1.539-4.752.699-8.121 4.881-8.121 9.684v18.057Z" class="stroke-shape"/></g></svg>