<svg xmlns="http://www.w3.org/2000/svg" width="42" height="27" viewBox="0 0 42 27" fill="none">
  <g clip-path="url(#clip0_290_7902)">
    <path d="M38.61 10.9226L21.0011 21.8238L3.39071 10.9226C3.39071 10.9226 3.39071 10.9226 3.39071 10.9226C2.96973 10.662 2.43282 10.5391 1.90912 10.5391C1.38543 10.5391 0.848512 10.662 0.427536 10.9226C0.00588231 11.1836 -0.25 11.5563 -0.25 11.9709C-0.25 12.3855 0.00588231 12.7582 0.427536 13.0192L19.5187 24.8375C19.7204 24.9625 19.955 25.0586 20.2076 25.1234C20.4605 25.1883 20.7297 25.2213 21.0004 24.9713C21.271 25.2213 21.5402 25.1883 21.7931 25.1234C22.0458 25.0587 22.2803 24.9625 22.482 24.8376C22.482 24.8376 22.482 24.8376 22.482 24.8375L41.5725 13.0192C41.9941 12.7582 42.25 12.3855 42.25 11.9709C42.25 11.5563 41.9941 11.1836 41.5725 10.9226C41.1515 10.662 40.6148 10.5391 40.0913 10.5391C39.5677 10.5391 39.031 10.662 38.61 10.9226Z" fill="#969696" stroke="#969696" stroke-width="0.5"/>
    <path d="M19.5188 15.383L19.6504 15.4644L19.6568 15.4605C19.8249 15.5481 20.0111 15.6178 20.2084 15.6684C20.4613 15.7332 20.7305 15.7662 21.0011 15.7662C21.2718 15.7662 21.541 15.7332 21.7939 15.6684C22.0465 15.6036 22.281 15.5074 22.4827 15.3825C22.4827 15.3825 22.4827 15.3825 22.4828 15.3825L41.5732 3.5641C41.9949 3.30308 42.2507 2.93044 42.2507 2.51582C42.2507 2.10121 41.9949 1.72857 41.5732 1.46754C41.1522 1.20694 40.6153 1.08398 40.0916 1.08398C39.5679 1.08398 39.031 1.20694 38.61 1.46754L21.0011 12.3688L3.39071 1.46801C3.39071 1.46801 3.39071 1.468 3.39071 1.468C2.96973 1.2074 2.43282 1.08445 1.90912 1.08445C1.38543 1.08445 0.848512 1.2074 0.427536 1.46801C0.0058822 1.72903 -0.25 2.10168 -0.25 2.51629C-0.25 2.9309 0.0058822 3.30354 0.427536 3.56457L19.5188 15.383Z" fill="#969696" stroke="#969696" stroke-width="0.5"/>
  </g>
  <defs>
    <clipPath id="clip0_290_7902">
      <rect width="42" height="26" fill="white" transform="translate(0 0.152344)"/>
    </clipPath>
  </defs>
</svg>