<!-- Shape: svg-path -->
<svg xmlns:xlink="http://www.w3.org/1999/xlink" fill="none" width="36.5" xmlns="http://www.w3.org/2000/svg" style="-webkit-print-color-adjust:exact" id="screenshot-882bd8d9-7513-80f9-8003-7175e21b44a5" version="1.1" viewBox="726.75 999.75 36.5 42.5" height="42.5">
  <g id="shape-882bd8d9-7513-80f9-8003-7175e21b44a5">
    <g class="fills" id="fills-882bd8d9-7513-80f9-8003-7175e21b44a5">
      <path fill="none" stroke-linecap="round" stroke-linejoin="round" rx="0" ry="0" style="fill:none" d="M752.500,1031.500L752.500,1038.250C752.500,1039.492,751.492,1040.500,750.250,1040.500L730.750,1040.500C729.507,1040.500,728.500,1039.493,728.500,1038.250L728.500,1012.750C728.500,1011.508,729.508,1010.500,730.750,1010.500L734.500,1010.500C735.505,1010.499,736.509,1010.582,737.500,1010.748M752.500,1031.500L759.250,1031.500C760.492,1031.500,761.500,1030.492,761.500,1029.250L761.500,1019.500C761.500,1010.580,755.014,1003.178,746.500,1001.748C745.509,1001.582,744.505,1001.499,743.500,1001.500L739.750,1001.500C738.508,1001.500,737.500,1002.508,737.500,1003.750L737.500,1010.750M752.500,1031.500L739.750,1031.500C738.507,1031.500,737.500,1030.493,737.500,1029.250L737.500,1010.750M761.500,1024.000L761.500,1020.250C761.500,1016.522,758.478,1013.500,754.750,1013.500L751.750,1013.500C750.507,1013.500,749.500,1012.493,749.500,1011.250L749.500,1008.250C749.500,1004.522,746.478,1001.500,742.750,1001.500L740.500,1001.500">
      </path>
    </g>
    <g id="strokes-882bd8d9-7513-80f9-8003-7175e21b44a5" class="strokes">
      <g class="stroke-shape">
        <path stroke-linecap="round" stroke-linejoin="round" rx="0" ry="0" style="fill:none;fill-opacity:none;stroke-width:3.5;stroke:#121717;stroke-opacity:1;stroke-dasharray:" d="M752.500,1031.500L752.500,1038.250C752.500,1039.492,751.492,1040.500,750.250,1040.500L730.750,1040.500C729.507,1040.500,728.500,1039.493,728.500,1038.250L728.500,1012.750C728.500,1011.508,729.508,1010.500,730.750,1010.500L734.500,1010.500C735.505,1010.499,736.509,1010.582,737.500,1010.748M752.500,1031.500L759.250,1031.500C760.492,1031.500,761.500,1030.492,761.500,1029.250L761.500,1019.500C761.500,1010.580,755.014,1003.178,746.500,1001.748C745.509,1001.582,744.505,1001.499,743.500,1001.500L739.750,1001.500C738.508,1001.500,737.500,1002.508,737.500,1003.750L737.500,1010.750M752.500,1031.500L739.750,1031.500C738.507,1031.500,737.500,1030.493,737.500,1029.250L737.500,1010.750M761.500,1024.000L761.500,1020.250C761.500,1016.522,758.478,1013.500,754.750,1013.500L751.750,1013.500C750.507,1013.500,749.500,1012.493,749.500,1011.250L749.500,1008.250C749.500,1004.522,746.478,1001.500,742.750,1001.500L740.500,1001.500">
        </path>
      </g>
    </g>
  </g>
</svg>