<svg fill="none" width="100%" xmlns="http://www.w3.org/2000/svg" style="-webkit-print-color-adjust:exact" viewBox="1408.25 999.5 57.5 53" height="100%"><path style="fill:none" d="M1410 1014.75V1044a6.75 6.75 0 0 0 6.75 6.75h40.5a6.75 6.75 0 0 0 6.75-6.75v-29.25m-54 0V1008a6.75 6.75 0 0 1 6.75-6.75h40.5a6.75 6.75 0 0 1 6.75 6.75v6.75m-54 0h54m-47.25-6.75Zm6.75 0Zm6.75 0Z" class="fills"/><g class="strokes"><path stroke-linecap="round" stroke-linejoin="round" style="fill:none;fill-opacity:none;stroke-width:3.5;stroke:#bababa;stroke-opacity:1" d="M1410 1014.75V1044a6.75 6.75 0 0 0 6.75 6.75h40.5a6.75 6.75 0 0 0 6.75-6.75v-29.25m-54 0V1008a6.75 6.75 0 0 1 6.75-6.75h40.5a6.75 6.75 0 0 1 6.75 6.75v6.75m-54 0h54m-47.25-6.75h0Zh0Zh0Zh0Zm6.75 0h0Zh0Zh0Zh0Zm6.75 0h0Zh0Zh0Zh0Z" class="stroke-shape"/></g></svg>