<!-- Shape: svg-path -->
<svg xmlns:xlink="http://www.w3.org/1999/xlink" fill="none" width="63" xmlns="http://www.w3.org/2000/svg" style="-webkit-print-color-adjust:exact" id="screenshot-b11339e3-7ffb-8093-8003-71961e5d4df6" version="1.1" viewBox="942.5 892.25 63 49.5" height="49.5">
  <g id="shape-b11339e3-7ffb-8093-8003-71961e5d4df6">
    <g class="fills" id="fills-b11339e3-7ffb-8093-8003-71961e5d4df6">
      <path fill="none" stroke-linecap="round" stroke-linejoin="round" rx="0" ry="0" style="fill:none" d="M1003.250,901.250L1003.250,932.750C1003.250,936.478,1000.228,939.500,996.500,939.500L951.500,939.500C947.772,939.500,944.750,936.478,944.750,932.750L944.750,901.250M1003.250,901.250C1003.250,897.522,1000.228,894.500,996.500,894.500L951.500,894.500C947.772,894.500,944.750,897.522,944.750,901.250M1003.250,901.250L1003.250,901.979C1003.250,904.322,1002.035,906.498,1000.040,907.727L977.540,921.572C975.369,922.909,972.631,922.909,970.460,921.572L947.960,907.730C945.965,906.501,944.750,904.325,944.750,901.982L944.750,901.250">
      </path>
    </g>
    <g id="strokes-b11339e3-7ffb-8093-8003-71961e5d4df6" class="strokes">
      <g class="stroke-shape">
        <path stroke-linecap="round" stroke-linejoin="round" rx="0" ry="0" style="fill:none;fill-opacity:none;stroke-width:2.5;stroke:#000000;stroke-opacity:1;stroke-dasharray:" d="M1003.250,901.250L1003.250,932.750C1003.250,936.478,1000.228,939.500,996.500,939.500L951.500,939.500C947.772,939.500,944.750,936.478,944.750,932.750L944.750,901.250M1003.250,901.250C1003.250,897.522,1000.228,894.500,996.500,894.500L951.500,894.500C947.772,894.500,944.750,897.522,944.750,901.250M1003.250,901.250L1003.250,901.979C1003.250,904.322,1002.035,906.498,1000.040,907.727L977.540,921.572C975.369,922.909,972.631,922.909,970.460,921.572L947.960,907.730C945.965,906.501,944.750,904.325,944.750,901.982L944.750,901.250">
        </path>
      </g>
    </g>
  </g>
</svg>