<svg fill="#ADADAD" width="42" height="42" viewBox="0 0 1.26 1.26" xmlns="http://www.w3.org/2000/svg" data-name="Layer 1"><path d="M.63.118a.525.525 0 0 0-.166 1.023c.025.004.036-.012.036-.025v-.098C.368 1.043.334.986.323.957A.191.191 0 0 0 .27.882C.251.873.225.848.269.847A.105.105 0 0 1 .35.901a.112.112 0 0 0 .153.043.111.111 0 0 1 .034-.07C.419.861.296.816.296.615A.204.204 0 0 1 .35.474.189.189 0 0 1 .355.335S.399.321.5.389a.495.495 0 0 1 .263 0C.862.321.906.335.906.335A.189.189 0 0 1 .91.474a.203.203 0 0 1 .054.141C.964.816.841.86.725.874A.125.125 0 0 1 .76.971l-.002.144c0 .014.009.03.036.024A.525.525 0 0 0 .63.118Z"/></svg>