<svg width="32" height="32" viewBox="0 0 32 32" fill="none" xmlns="http://www.w3.org/2000/svg">
<path fill-rule="evenodd" clip-rule="evenodd" d="M16 13.75V19.15H24.925C24.55 21.475 22.225 25.9375 16 25.9375C10.6375 25.9375 6.25 21.475 6.25 16C6.25 10.525 10.6375 6.0625 16 6.0625C19.075 6.0625 21.1 7.375 22.2625 8.5L26.5375 4.375C23.8 1.7875 20.2375 0.25 16 0.25C7.3 0.25 0.25 7.3 0.25 16C0.25 24.7 7.3 31.75 16 31.75C25.075 31.75 31.1125 25.375 31.1125 16.375C31.1125 15.325 31 14.5375 30.85 13.75H16Z" fill="#ADADAD"/>
</svg>
