<svg width="34" height="33" viewBox="0 0 34 33" fill="none" xmlns="http://www.w3.org/2000/svg">
<path fill-rule="evenodd" clip-rule="evenodd" d="M4 0.25H30C30.862 0.25 31.6886 0.59241 32.2981 1.2019C32.9076 1.8114 33.25 2.63805 33.25 3.5V29.5C33.25 29.9268 33.1659 30.3494 33.0026 30.7437C32.8393 31.138 32.5999 31.4963 32.2981 31.7981C31.9963 32.0999 31.638 32.3393 31.2437 32.5026C30.8494 32.6659 30.4268 32.75 30 32.75H4C3.5732 32.75 3.15059 32.6659 2.75628 32.5026C2.36197 32.3393 2.00369 32.0999 1.7019 31.7981C1.40011 31.4963 1.16072 31.138 0.997392 30.7437C0.834064 30.3494 0.75 29.9268 0.75 29.5V3.5C0.75 2.63805 1.09241 1.8114 1.7019 1.2019C2.3114 0.59241 3.13805 0.25 4 0.25ZM4 3.5V29.5H30V3.5H4ZM16.1062 12.3562C16.8638 11.8883 17.7346 11.6355 18.625 11.625H20.25C22.525 11.625 25.125 13.4937 25.125 16.5V23H21.875V16.5C21.875 15.5521 20.9 14.875 20.25 14.875H18.625C17.975 14.875 17 15.5521 17 16.5V23H13.75V11.625H15.375L16.1062 12.3562ZM10.5 10C10.069 10 9.6557 9.82879 9.35095 9.52405C9.0462 9.2193 8.875 8.80598 8.875 8.375C8.875 7.94402 9.0462 7.5307 9.35095 7.22595C9.6557 6.9212 10.069 6.75 10.5 6.75C10.931 6.75 11.3443 6.9212 11.649 7.22595C11.9538 7.5307 12.125 7.94402 12.125 8.375C12.125 8.80598 11.9538 9.2193 11.649 9.52405C11.3443 9.82879 10.931 10 10.5 10ZM12.125 23H8.875V11.625H12.125V23Z" fill="#ADADAD"/>
</svg>
