<svg xmlns="http://www.w3.org/2000/svg" width="748" height="195" viewBox="0 0 748 195" fill="none">
  <mask id="path-1-inside-1_417_14" fill="white">
    <path d="M24.96 78.528C9.216 78.528 0 73.536 0 64.896C0 55.008 12 48.288 32.544 46.368L51.456 44.64C53.568 44.448 54.816 43.68 54.816 42.72C54.816 40.32 49.344 38.496 40.992 38.496C28.992 38.496 15.552 42.336 6.144 48.384L0.192 36.576C9.792 30.048 25.344 25.824 40.992 25.824C62.784 25.824 77.184 32.736 77.184 44.928V76.992H57.504L54.432 66.24H54.336C49.44 73.824 38.592 78.528 24.96 78.528ZM33.024 65.088C45.888 65.088 54.432 60.96 54.432 54.912V54.72L34.08 56.544C26.688 57.12 22.752 58.56 22.752 61.152C22.752 63.648 26.304 65.088 33.024 65.088Z"/>
    <path d="M116.493 78.624C100.749 78.624 90.765 69.792 90.861 55.488L90.957 27.456H113.517V53.088C113.517 60.96 118.413 65.664 126.861 65.664C136.461 65.664 142.317 60.096 142.317 50.688V27.456H164.973V76.992H145.389L142.989 64.992H142.893C138.285 73.248 128.877 78.624 116.493 78.624Z"/>
    <path d="M215.733 78.528C201.525 78.528 186.261 75.36 177.909 70.656L183.861 59.136C190.581 63.264 203.061 66.336 214.293 66.336C225.045 66.336 229.845 64.8 229.845 62.496C229.845 60.48 226.293 59.424 219.477 58.944L207.189 57.984C190.485 56.832 181.941 52.8 181.941 43.776C181.941 31.392 196.053 25.824 215.541 25.824C226.005 25.824 236.373 28.032 245.109 32.352L239.733 42.816C233.589 39.648 224.181 37.248 215.253 37.248C207.285 37.248 201.141 38.496 201.141 40.992C201.141 42.912 204.117 43.68 210.069 44.16L222.357 45.216C240.501 46.56 249.621 50.784 249.621 60.672C249.621 73.056 235.125 78.528 215.733 78.528Z"/>
    <path d="M298.54 78.528C282.412 78.528 272.525 71.232 272.525 59.328L272.428 41.28H258.605V27.456H272.428V14.208L295.085 10.176V27.456H325.325V41.28H295.085V54.24C295.085 60.192 298.157 63.264 305.069 63.264C311.789 63.264 316.781 60.864 322.157 55.968L326.957 68.736C319.277 75.648 310.732 78.528 298.54 78.528Z"/>
    <path d="M382.11 25.824C393.15 25.824 400.734 34.368 401.502 47.616L380.766 51.648C380.382 44.256 377.118 39.552 372.414 39.552C365.982 39.552 362.142 45.504 362.142 54.912V76.992H339.39V27.456H358.302L361.374 38.88H361.47C365.118 30.816 373.182 25.824 382.11 25.824Z"/>
    <path d="M434.329 78.528C418.585 78.528 409.369 73.536 409.369 64.896C409.369 55.008 421.369 48.288 441.913 46.368L460.825 44.64C462.937 44.448 464.185 43.68 464.185 42.72C464.185 40.32 458.713 38.496 450.361 38.496C438.361 38.496 424.921 42.336 415.513 48.384L409.561 36.576C419.161 30.048 434.713 25.824 450.361 25.824C472.153 25.824 486.553 32.736 486.553 44.928V76.992H466.873L463.801 66.24H463.705C458.809 73.824 447.961 78.528 434.329 78.528ZM442.393 65.088C455.257 65.088 463.801 60.96 463.801 54.912V54.72L443.449 56.544C436.057 57.12 432.121 58.56 432.121 61.152C432.121 63.648 435.673 65.088 442.393 65.088Z"/>
    <path d="M501.094 76.992V5.376H523.846V76.992H501.094Z"/>
    <path d="M577.354 78.528C553.354 78.528 537.61 68.16 537.61 52.224C537.61 36.288 553.354 25.824 577.354 25.824C601.45 25.824 617.194 36.288 617.194 52.224C617.194 68.16 601.45 78.528 577.354 78.528ZM577.354 65.28C587.722 65.28 594.442 60.096 594.442 52.224C594.442 44.352 587.722 39.168 577.354 39.168C566.986 39.168 560.266 44.352 560.266 52.224C560.266 60.096 566.986 65.28 577.354 65.28Z"/>
    <path d="M630.829 97.152V27.456H650.413L653.389 40.224H653.485C657.325 31.488 667.981 25.824 680.461 25.824C698.125 25.824 709.645 36.288 709.645 52.224C709.645 68.16 698.125 78.528 680.461 78.528C668.077 78.528 657.517 72.96 653.677 64.32H653.581V97.152H630.829ZM669.805 63.456C680.173 63.456 686.893 59.04 686.893 52.224C686.893 45.408 680.173 40.896 669.805 40.896C659.533 40.896 652.717 45.408 652.717 52.224C652.717 59.04 659.533 63.456 669.805 63.456Z"/>
    <path d="M735.064 22.176C727.768 22.176 722.488 17.568 722.488 11.04C722.488 4.512 727.768 0 735.064 0C742.36 0 747.64 4.512 747.64 11.04C747.64 17.568 742.36 22.176 735.064 22.176ZM723.736 76.992V27.456H746.392V76.992H723.736Z"/>
    <path d="M246.272 176.376C230.144 176.376 220.256 169.08 220.256 157.176L220.16 139.128H206.336V125.304H220.16V112.056L242.816 108.024V125.304H273.056V139.128H242.816V152.088C242.816 158.04 245.888 161.112 252.8 161.112C259.52 161.112 264.512 158.712 269.888 153.816L274.688 166.584C267.008 173.496 258.464 176.376 246.272 176.376Z"/>
    <path d="M328.306 176.376C302.77 176.376 285.49 166.104 285.49 149.976C285.49 134.52 301.522 123.672 324.466 123.672C347.026 123.672 361.906 134.136 361.906 150.072C361.906 151.512 361.714 153.624 361.234 155.256H309.394C311.986 161.016 320.626 163.32 329.938 163.32C339.73 163.32 349.618 161.208 354.706 158.328L360.946 169.08C354.226 173.4 341.554 176.376 328.306 176.376ZM309.01 145.56H339.058C338.77 139.896 332.242 136.056 324.274 136.056C316.114 136.056 309.874 139.992 309.01 145.56Z"/>
    <path d="M415.148 176.376C390.668 176.376 374.636 166.008 374.732 150.072C374.732 134.136 390.092 123.672 413.132 123.672C432.332 123.672 446.444 131.352 449.036 143.064L427.916 146.52C426.668 141.048 421.58 137.592 414.092 137.592C403.916 137.592 397.388 142.296 397.388 150.072C397.388 157.752 404.204 162.552 415.436 162.552C425.132 162.552 432.14 158.136 433.676 150.936L454.7 154.2C451.916 167.544 436.268 176.376 415.148 176.376Z"/>
    <path d="M467.388 174.84V103.224H490.14V137.304H490.236C494.94 129.048 503.484 123.672 515.868 123.672C531.612 123.672 541.596 132.504 541.5 146.808L541.404 174.84H518.844V149.208C518.844 141.336 513.948 136.632 505.5 136.632C495.9 136.632 490.044 142.2 490.044 151.608V174.84V184.92C489.475 192.712 486.809 194.738 478.716 195H467.388H460.927H206.336V189.84H460.927C465.939 189.574 467.6 188.196 467.388 182.34V174.84Z"/>
  </mask>
  <path d="M24.96 78.528C9.216 78.528 0 73.536 0 64.896C0 55.008 12 48.288 32.544 46.368L51.456 44.64C53.568 44.448 54.816 43.68 54.816 42.72C54.816 40.32 49.344 38.496 40.992 38.496C28.992 38.496 15.552 42.336 6.144 48.384L0.192 36.576C9.792 30.048 25.344 25.824 40.992 25.824C62.784 25.824 77.184 32.736 77.184 44.928V76.992H57.504L54.432 66.24H54.336C49.44 73.824 38.592 78.528 24.96 78.528ZM33.024 65.088C45.888 65.088 54.432 60.96 54.432 54.912V54.72L34.08 56.544C26.688 57.12 22.752 58.56 22.752 61.152C22.752 63.648 26.304 65.088 33.024 65.088Z" fill="url(#paint0_linear_417_14)"/>
  <path d="M116.493 78.624C100.749 78.624 90.765 69.792 90.861 55.488L90.957 27.456H113.517V53.088C113.517 60.96 118.413 65.664 126.861 65.664C136.461 65.664 142.317 60.096 142.317 50.688V27.456H164.973V76.992H145.389L142.989 64.992H142.893C138.285 73.248 128.877 78.624 116.493 78.624Z" fill="url(#paint1_linear_417_14)"/>
  <path d="M215.733 78.528C201.525 78.528 186.261 75.36 177.909 70.656L183.861 59.136C190.581 63.264 203.061 66.336 214.293 66.336C225.045 66.336 229.845 64.8 229.845 62.496C229.845 60.48 226.293 59.424 219.477 58.944L207.189 57.984C190.485 56.832 181.941 52.8 181.941 43.776C181.941 31.392 196.053 25.824 215.541 25.824C226.005 25.824 236.373 28.032 245.109 32.352L239.733 42.816C233.589 39.648 224.181 37.248 215.253 37.248C207.285 37.248 201.141 38.496 201.141 40.992C201.141 42.912 204.117 43.68 210.069 44.16L222.357 45.216C240.501 46.56 249.621 50.784 249.621 60.672C249.621 73.056 235.125 78.528 215.733 78.528Z" fill="url(#paint2_linear_417_14)"/>
  <path d="M298.54 78.528C282.412 78.528 272.525 71.232 272.525 59.328L272.428 41.28H258.605V27.456H272.428V14.208L295.085 10.176V27.456H325.325V41.28H295.085V54.24C295.085 60.192 298.157 63.264 305.069 63.264C311.789 63.264 316.781 60.864 322.157 55.968L326.957 68.736C319.277 75.648 310.732 78.528 298.54 78.528Z" fill="url(#paint3_linear_417_14)"/>
  <path d="M382.11 25.824C393.15 25.824 400.734 34.368 401.502 47.616L380.766 51.648C380.382 44.256 377.118 39.552 372.414 39.552C365.982 39.552 362.142 45.504 362.142 54.912V76.992H339.39V27.456H358.302L361.374 38.88H361.47C365.118 30.816 373.182 25.824 382.11 25.824Z" fill="url(#paint4_linear_417_14)"/>
  <path d="M434.329 78.528C418.585 78.528 409.369 73.536 409.369 64.896C409.369 55.008 421.369 48.288 441.913 46.368L460.825 44.64C462.937 44.448 464.185 43.68 464.185 42.72C464.185 40.32 458.713 38.496 450.361 38.496C438.361 38.496 424.921 42.336 415.513 48.384L409.561 36.576C419.161 30.048 434.713 25.824 450.361 25.824C472.153 25.824 486.553 32.736 486.553 44.928V76.992H466.873L463.801 66.24H463.705C458.809 73.824 447.961 78.528 434.329 78.528ZM442.393 65.088C455.257 65.088 463.801 60.96 463.801 54.912V54.72L443.449 56.544C436.057 57.12 432.121 58.56 432.121 61.152C432.121 63.648 435.673 65.088 442.393 65.088Z" fill="url(#paint5_linear_417_14)"/>
  <path d="M501.094 76.992V5.376H523.846V76.992H501.094Z" fill="url(#paint6_linear_417_14)"/>
  <path d="M577.354 78.528C553.354 78.528 537.61 68.16 537.61 52.224C537.61 36.288 553.354 25.824 577.354 25.824C601.45 25.824 617.194 36.288 617.194 52.224C617.194 68.16 601.45 78.528 577.354 78.528ZM577.354 65.28C587.722 65.28 594.442 60.096 594.442 52.224C594.442 44.352 587.722 39.168 577.354 39.168C566.986 39.168 560.266 44.352 560.266 52.224C560.266 60.096 566.986 65.28 577.354 65.28Z" fill="url(#paint7_linear_417_14)"/>
  <path d="M630.829 97.152V27.456H650.413L653.389 40.224H653.485C657.325 31.488 667.981 25.824 680.461 25.824C698.125 25.824 709.645 36.288 709.645 52.224C709.645 68.16 698.125 78.528 680.461 78.528C668.077 78.528 657.517 72.96 653.677 64.32H653.581V97.152H630.829ZM669.805 63.456C680.173 63.456 686.893 59.04 686.893 52.224C686.893 45.408 680.173 40.896 669.805 40.896C659.533 40.896 652.717 45.408 652.717 52.224C652.717 59.04 659.533 63.456 669.805 63.456Z" fill="url(#paint8_linear_417_14)"/>
  <path d="M735.064 22.176C727.768 22.176 722.488 17.568 722.488 11.04C722.488 4.512 727.768 0 735.064 0C742.36 0 747.64 4.512 747.64 11.04C747.64 17.568 742.36 22.176 735.064 22.176ZM723.736 76.992V27.456H746.392V76.992H723.736Z" fill="url(#paint9_linear_417_14)"/>
  <path d="M246.272 176.376C230.144 176.376 220.256 169.08 220.256 157.176L220.16 139.128H206.336V125.304H220.16V112.056L242.816 108.024V125.304H273.056V139.128H242.816V152.088C242.816 158.04 245.888 161.112 252.8 161.112C259.52 161.112 264.512 158.712 269.888 153.816L274.688 166.584C267.008 173.496 258.464 176.376 246.272 176.376Z" fill="url(#paint10_linear_417_14)"/>
  <path d="M328.306 176.376C302.77 176.376 285.49 166.104 285.49 149.976C285.49 134.52 301.522 123.672 324.466 123.672C347.026 123.672 361.906 134.136 361.906 150.072C361.906 151.512 361.714 153.624 361.234 155.256H309.394C311.986 161.016 320.626 163.32 329.938 163.32C339.73 163.32 349.618 161.208 354.706 158.328L360.946 169.08C354.226 173.4 341.554 176.376 328.306 176.376ZM309.01 145.56H339.058C338.77 139.896 332.242 136.056 324.274 136.056C316.114 136.056 309.874 139.992 309.01 145.56Z" fill="url(#paint11_linear_417_14)"/>
  <path d="M415.148 176.376C390.668 176.376 374.636 166.008 374.732 150.072C374.732 134.136 390.092 123.672 413.132 123.672C432.332 123.672 446.444 131.352 449.036 143.064L427.916 146.52C426.668 141.048 421.58 137.592 414.092 137.592C403.916 137.592 397.388 142.296 397.388 150.072C397.388 157.752 404.204 162.552 415.436 162.552C425.132 162.552 432.14 158.136 433.676 150.936L454.7 154.2C451.916 167.544 436.268 176.376 415.148 176.376Z" fill="url(#paint12_linear_417_14)"/>
  <path d="M467.388 174.84V103.224H490.14V137.304H490.236C494.94 129.048 503.484 123.672 515.868 123.672C531.612 123.672 541.596 132.504 541.5 146.808L541.404 174.84H518.844V149.208C518.844 141.336 513.948 136.632 505.5 136.632C495.9 136.632 490.044 142.2 490.044 151.608V174.84V184.92C489.475 192.712 486.809 194.738 478.716 195H467.388H460.927H206.336V189.84H460.927C465.939 189.574 467.6 188.196 467.388 182.34V174.84Z" fill="url(#paint13_linear_417_14)"/>
  <path d="M24.96 78.528C9.216 78.528 0 73.536 0 64.896C0 55.008 12 48.288 32.544 46.368L51.456 44.64C53.568 44.448 54.816 43.68 54.816 42.72C54.816 40.32 49.344 38.496 40.992 38.496C28.992 38.496 15.552 42.336 6.144 48.384L0.192 36.576C9.792 30.048 25.344 25.824 40.992 25.824C62.784 25.824 77.184 32.736 77.184 44.928V76.992H57.504L54.432 66.24H54.336C49.44 73.824 38.592 78.528 24.96 78.528ZM33.024 65.088C45.888 65.088 54.432 60.96 54.432 54.912V54.72L34.08 56.544C26.688 57.12 22.752 58.56 22.752 61.152C22.752 63.648 26.304 65.088 33.024 65.088Z" stroke="#121717" mask="url(#path-1-inside-1_417_14)"/>
  <path d="M116.493 78.624C100.749 78.624 90.765 69.792 90.861 55.488L90.957 27.456H113.517V53.088C113.517 60.96 118.413 65.664 126.861 65.664C136.461 65.664 142.317 60.096 142.317 50.688V27.456H164.973V76.992H145.389L142.989 64.992H142.893C138.285 73.248 128.877 78.624 116.493 78.624Z" stroke="#121717" mask="url(#path-1-inside-1_417_14)"/>
  <path d="M215.733 78.528C201.525 78.528 186.261 75.36 177.909 70.656L183.861 59.136C190.581 63.264 203.061 66.336 214.293 66.336C225.045 66.336 229.845 64.8 229.845 62.496C229.845 60.48 226.293 59.424 219.477 58.944L207.189 57.984C190.485 56.832 181.941 52.8 181.941 43.776C181.941 31.392 196.053 25.824 215.541 25.824C226.005 25.824 236.373 28.032 245.109 32.352L239.733 42.816C233.589 39.648 224.181 37.248 215.253 37.248C207.285 37.248 201.141 38.496 201.141 40.992C201.141 42.912 204.117 43.68 210.069 44.16L222.357 45.216C240.501 46.56 249.621 50.784 249.621 60.672C249.621 73.056 235.125 78.528 215.733 78.528Z" stroke="#121717" mask="url(#path-1-inside-1_417_14)"/>
  <path d="M298.54 78.528C282.412 78.528 272.525 71.232 272.525 59.328L272.428 41.28H258.605V27.456H272.428V14.208L295.085 10.176V27.456H325.325V41.28H295.085V54.24C295.085 60.192 298.157 63.264 305.069 63.264C311.789 63.264 316.781 60.864 322.157 55.968L326.957 68.736C319.277 75.648 310.732 78.528 298.54 78.528Z" stroke="#121717" mask="url(#path-1-inside-1_417_14)"/>
  <path d="M382.11 25.824C393.15 25.824 400.734 34.368 401.502 47.616L380.766 51.648C380.382 44.256 377.118 39.552 372.414 39.552C365.982 39.552 362.142 45.504 362.142 54.912V76.992H339.39V27.456H358.302L361.374 38.88H361.47C365.118 30.816 373.182 25.824 382.11 25.824Z" stroke="#121717" mask="url(#path-1-inside-1_417_14)"/>
  <path d="M434.329 78.528C418.585 78.528 409.369 73.536 409.369 64.896C409.369 55.008 421.369 48.288 441.913 46.368L460.825 44.64C462.937 44.448 464.185 43.68 464.185 42.72C464.185 40.32 458.713 38.496 450.361 38.496C438.361 38.496 424.921 42.336 415.513 48.384L409.561 36.576C419.161 30.048 434.713 25.824 450.361 25.824C472.153 25.824 486.553 32.736 486.553 44.928V76.992H466.873L463.801 66.24H463.705C458.809 73.824 447.961 78.528 434.329 78.528ZM442.393 65.088C455.257 65.088 463.801 60.96 463.801 54.912V54.72L443.449 56.544C436.057 57.12 432.121 58.56 432.121 61.152C432.121 63.648 435.673 65.088 442.393 65.088Z" stroke="#121717" mask="url(#path-1-inside-1_417_14)"/>
  <path d="M501.094 76.992V5.376H523.846V76.992H501.094Z" stroke="#121717" mask="url(#path-1-inside-1_417_14)"/>
  <path d="M577.354 78.528C553.354 78.528 537.61 68.16 537.61 52.224C537.61 36.288 553.354 25.824 577.354 25.824C601.45 25.824 617.194 36.288 617.194 52.224C617.194 68.16 601.45 78.528 577.354 78.528ZM577.354 65.28C587.722 65.28 594.442 60.096 594.442 52.224C594.442 44.352 587.722 39.168 577.354 39.168C566.986 39.168 560.266 44.352 560.266 52.224C560.266 60.096 566.986 65.28 577.354 65.28Z" stroke="#121717" mask="url(#path-1-inside-1_417_14)"/>
  <path d="M630.829 97.152V27.456H650.413L653.389 40.224H653.485C657.325 31.488 667.981 25.824 680.461 25.824C698.125 25.824 709.645 36.288 709.645 52.224C709.645 68.16 698.125 78.528 680.461 78.528C668.077 78.528 657.517 72.96 653.677 64.32H653.581V97.152H630.829ZM669.805 63.456C680.173 63.456 686.893 59.04 686.893 52.224C686.893 45.408 680.173 40.896 669.805 40.896C659.533 40.896 652.717 45.408 652.717 52.224C652.717 59.04 659.533 63.456 669.805 63.456Z" stroke="#121717" mask="url(#path-1-inside-1_417_14)"/>
  <path d="M735.064 22.176C727.768 22.176 722.488 17.568 722.488 11.04C722.488 4.512 727.768 0 735.064 0C742.36 0 747.64 4.512 747.64 11.04C747.64 17.568 742.36 22.176 735.064 22.176ZM723.736 76.992V27.456H746.392V76.992H723.736Z" stroke="#121717" mask="url(#path-1-inside-1_417_14)"/>
  <path d="M246.272 176.376C230.144 176.376 220.256 169.08 220.256 157.176L220.16 139.128H206.336V125.304H220.16V112.056L242.816 108.024V125.304H273.056V139.128H242.816V152.088C242.816 158.04 245.888 161.112 252.8 161.112C259.52 161.112 264.512 158.712 269.888 153.816L274.688 166.584C267.008 173.496 258.464 176.376 246.272 176.376Z" stroke="#121717" mask="url(#path-1-inside-1_417_14)"/>
  <path d="M328.306 176.376C302.77 176.376 285.49 166.104 285.49 149.976C285.49 134.52 301.522 123.672 324.466 123.672C347.026 123.672 361.906 134.136 361.906 150.072C361.906 151.512 361.714 153.624 361.234 155.256H309.394C311.986 161.016 320.626 163.32 329.938 163.32C339.73 163.32 349.618 161.208 354.706 158.328L360.946 169.08C354.226 173.4 341.554 176.376 328.306 176.376ZM309.01 145.56H339.058C338.77 139.896 332.242 136.056 324.274 136.056C316.114 136.056 309.874 139.992 309.01 145.56Z" stroke="#121717" mask="url(#path-1-inside-1_417_14)"/>
  <path d="M415.148 176.376C390.668 176.376 374.636 166.008 374.732 150.072C374.732 134.136 390.092 123.672 413.132 123.672C432.332 123.672 446.444 131.352 449.036 143.064L427.916 146.52C426.668 141.048 421.58 137.592 414.092 137.592C403.916 137.592 397.388 142.296 397.388 150.072C397.388 157.752 404.204 162.552 415.436 162.552C425.132 162.552 432.14 158.136 433.676 150.936L454.7 154.2C451.916 167.544 436.268 176.376 415.148 176.376Z" stroke="#121717" mask="url(#path-1-inside-1_417_14)"/>
  <path d="M467.388 174.84V103.224H490.14V137.304H490.236C494.94 129.048 503.484 123.672 515.868 123.672C531.612 123.672 541.596 132.504 541.5 146.808L541.404 174.84H518.844V149.208C518.844 141.336 513.948 136.632 505.5 136.632C495.9 136.632 490.044 142.2 490.044 151.608V174.84V184.92C489.475 192.712 486.809 194.738 478.716 195H467.388H460.927H206.336V189.84H460.927C465.939 189.574 467.6 188.196 467.388 182.34V174.84Z" stroke="#121717" mask="url(#path-1-inside-1_417_14)"/>
  <defs>
    <linearGradient id="paint0_linear_417_14" x1="380.5" y1="-34.5" x2="445.5" y2="184.5" gradientUnits="userSpaceOnUse">
      <stop stop-color="#8E629C"/>
      <stop offset="1" stop-color="#5CC3C2"/>
    </linearGradient>
    <linearGradient id="paint1_linear_417_14" x1="380.5" y1="-34.5" x2="445.5" y2="184.5" gradientUnits="userSpaceOnUse">
      <stop stop-color="#8E629C"/>
      <stop offset="1" stop-color="#5CC3C2"/>
    </linearGradient>
    <linearGradient id="paint2_linear_417_14" x1="380.5" y1="-34.5" x2="445.5" y2="184.5" gradientUnits="userSpaceOnUse">
      <stop stop-color="#8E629C"/>
      <stop offset="1" stop-color="#5CC3C2"/>
    </linearGradient>
    <linearGradient id="paint3_linear_417_14" x1="380.5" y1="-34.5" x2="445.5" y2="184.5" gradientUnits="userSpaceOnUse">
      <stop stop-color="#8E629C"/>
      <stop offset="1" stop-color="#5CC3C2"/>
    </linearGradient>
    <linearGradient id="paint4_linear_417_14" x1="380.5" y1="-34.5" x2="445.5" y2="184.5" gradientUnits="userSpaceOnUse">
      <stop stop-color="#8E629C"/>
      <stop offset="1" stop-color="#5CC3C2"/>
    </linearGradient>
    <linearGradient id="paint5_linear_417_14" x1="380.5" y1="-34.5" x2="445.5" y2="184.5" gradientUnits="userSpaceOnUse">
      <stop stop-color="#8E629C"/>
      <stop offset="1" stop-color="#5CC3C2"/>
    </linearGradient>
    <linearGradient id="paint6_linear_417_14" x1="380.5" y1="-34.5" x2="445.5" y2="184.5" gradientUnits="userSpaceOnUse">
      <stop stop-color="#8E629C"/>
      <stop offset="1" stop-color="#5CC3C2"/>
    </linearGradient>
    <linearGradient id="paint7_linear_417_14" x1="380.5" y1="-34.5" x2="445.5" y2="184.5" gradientUnits="userSpaceOnUse">
      <stop stop-color="#8E629C"/>
      <stop offset="1" stop-color="#5CC3C2"/>
    </linearGradient>
    <linearGradient id="paint8_linear_417_14" x1="380.5" y1="-34.5" x2="445.5" y2="184.5" gradientUnits="userSpaceOnUse">
      <stop stop-color="#8E629C"/>
      <stop offset="1" stop-color="#5CC3C2"/>
    </linearGradient>
    <linearGradient id="paint9_linear_417_14" x1="380.5" y1="-34.5" x2="445.5" y2="184.5" gradientUnits="userSpaceOnUse">
      <stop stop-color="#8E629C"/>
      <stop offset="1" stop-color="#5CC3C2"/>
    </linearGradient>
    <linearGradient id="paint10_linear_417_14" x1="380.5" y1="-34.5" x2="445.5" y2="184.5" gradientUnits="userSpaceOnUse">
      <stop stop-color="#8E629C"/>
      <stop offset="1" stop-color="#5CC3C2"/>
    </linearGradient>
    <linearGradient id="paint11_linear_417_14" x1="380.5" y1="-34.5" x2="445.5" y2="184.5" gradientUnits="userSpaceOnUse">
      <stop stop-color="#8E629C"/>
      <stop offset="1" stop-color="#5CC3C2"/>
    </linearGradient>
    <linearGradient id="paint12_linear_417_14" x1="380.5" y1="-34.5" x2="445.5" y2="184.5" gradientUnits="userSpaceOnUse">
      <stop stop-color="#8E629C"/>
      <stop offset="1" stop-color="#5CC3C2"/>
    </linearGradient>
    <linearGradient id="paint13_linear_417_14" x1="380.5" y1="-34.5" x2="445.5" y2="184.5" gradientUnits="userSpaceOnUse">
      <stop stop-color="#8E629C"/>
      <stop offset="1" stop-color="#5CC3C2"/>
    </linearGradient>
  </defs>
</svg>