<svg xmlns="http://www.w3.org/2000/svg" width="100%" height="100%" viewBox="0 0 1095 99" fill="none">
  <path d="M25.3272 79.4528C9.58319 79.4528 0.367188 74.4608 0.367188 65.8208C0.367188 55.9328 12.3672 49.2128 32.9112 47.2928L51.8232 45.5648C53.9352 45.3728 55.1832 44.6048 55.1832 43.6448C55.1832 41.2448 49.7112 39.4208 41.3592 39.4208C29.3592 39.4208 15.9192 43.2608 6.51119 49.3088L4.51758 47.3154L0.559188 37.5008C10.1592 30.9728 25.7112 26.7488 41.3592 26.7488C63.1512 26.7488 77.5512 33.6608 77.5512 45.8528V77.9168H57.8712L55.9473 75.917L54.7992 67.1648H54.7032C49.8072 74.7488 38.9592 79.4528 25.3272 79.4528ZM33.3912 66.0128C46.2552 66.0128 54.7992 61.8848 54.7992 55.8368V55.6448L34.4472 57.4688C27.0552 58.0448 23.1192 59.4848 23.1192 62.0768C23.1192 64.5728 26.6712 66.0128 33.3912 66.0128Z" fill="url(#paint0_linear_341_4186)"/>
  <path d="M116.86 79.5488C101.116 79.5488 91.1322 70.7168 91.2282 56.4128L91.3242 28.3808L111.881 26.3779L113.884 28.3808V54.0128C113.884 61.8848 118.78 66.5888 127.228 66.5888C136.828 66.5888 142.684 61.0208 142.684 51.6128V28.3808L163.34 26.3841L165.34 28.3808V77.9168H145.756L143.756 75.917L143.356 65.9168H143.26C138.652 74.1728 129.244 79.5488 116.86 79.5488Z" fill="url(#paint1_linear_341_4186)"/>
  <path d="M216.1 79.4528C201.892 79.4528 186.628 76.2848 178.276 71.5808L176.277 69.5844L184.228 60.0608C190.948 64.1888 203.428 67.2608 214.66 67.2608C225.412 67.2608 230.212 65.7248 230.212 63.4208C230.212 61.4048 226.66 60.3488 219.844 59.8688L207.556 58.9088C190.852 57.7568 182.308 53.7248 182.308 44.7008C182.308 32.3168 196.42 26.7488 215.908 26.7488C225.411 26.7488 235.28 27.7101 243.475 31.2803C244.186 31.8427 244.887 32.4914 245.476 33.2768L240.1 43.7408C233.956 40.5728 224.548 38.1728 215.62 38.1728C207.652 38.1728 201.508 39.4208 201.508 41.9168C201.508 43.8368 204.484 44.6048 210.436 45.0848L222.724 46.1408C240.868 47.4848 249.988 51.7088 249.988 61.5968C249.988 73.9808 235.492 79.4528 216.1 79.4528Z" fill="url(#paint2_linear_341_4186)"/>
  <path d="M298.908 79.4528C282.78 79.4528 272.892 72.1568 272.892 60.2528L272.796 42.2048H258.972L256.975 40.2115L258.972 28.3808H272.796V15.1328L293.458 9.10017L295.452 11.1008V28.3808L323.691 26.3833L325.692 28.3808V42.2048H295.452V55.1648C295.452 61.1168 298.524 64.1888 305.436 64.1888C311.767 64.1888 315.489 59.2545 320.52 54.9131C321.112 55.5638 321.986 56.4282 322.524 56.8928L327.324 69.6608C319.644 76.5728 311.1 79.4528 298.908 79.4528Z" fill="url(#paint3_linear_341_4186)"/>
  <path d="M382.477 26.7293C393.517 26.7293 401.101 35.2733 401.869 48.5213L381.133 52.5533C380.622 51.4411 379.945 50.9207 379.135 50.5732C379.797 44.2478 376.97 40.4573 372.781 40.4573C366.349 40.4573 362.509 46.4093 362.509 55.8173V77.8973H339.757L337.76 75.8936L339.757 28.3613L356.666 26.3818L358.669 28.3613L361.741 39.7853H361.837C365.485 31.7213 373.549 26.7293 382.477 26.7293Z" fill="url(#paint4_linear_341_4186)"/>
  <path d="M434.696 79.4528C418.952 79.4528 409.736 74.4608 409.736 65.8208C409.736 55.9328 421.736 49.2128 442.28 47.2928L461.192 45.5648C463.304 45.3728 464.552 44.6048 464.552 43.6448C464.552 41.2448 459.08 39.4208 450.728 39.4208C438.728 39.4208 425.288 43.2608 415.88 49.3088L413.886 47.2936L409.928 37.5008C419.528 30.9728 435.08 26.7488 450.728 26.7488C472.52 26.7488 486.92 33.6608 486.92 45.8528V77.9168H467.24L465.236 75.9131L464.168 67.1648H464.072C459.176 74.7488 448.328 79.4528 434.696 79.4528ZM442.76 66.0128C455.624 66.0128 464.168 61.8848 464.168 55.8368V55.6448L443.816 57.4688C436.424 58.0448 432.488 59.4848 432.488 62.0768C432.488 64.5728 436.04 66.0128 442.76 66.0128Z" fill="url(#paint5_linear_341_4186)"/>
  <path d="M501.461 77.9168L499.467 75.9131L501.461 6.3008L522.213 4.2998L524.213 6.3008V77.9168H501.461Z" fill="url(#paint6_linear_341_4186)"/>
  <path d="M577.722 79.4528C553.722 79.4528 537.978 69.0848 537.978 53.1488C537.978 37.2128 553.722 26.7488 577.722 26.7488C601.818 26.7488 617.562 37.2128 617.562 53.1488C617.562 69.0848 601.818 79.4528 577.722 79.4528ZM577.722 66.2048C588.09 66.2048 594.81 61.0208 594.81 53.1488C594.81 45.2768 588.09 40.0928 577.722 40.0928C567.354 40.0928 560.634 45.2768 560.634 53.1488C560.634 61.0208 567.354 66.2048 577.722 66.2048Z" fill="url(#paint7_linear_341_4186)"/>
  <path d="M631.196 98.0768L629.196 96.0674L631.196 28.3808L648.784 26.3814L650.78 28.3808L653.756 41.1488H653.852C657.692 32.4128 668.348 26.7488 680.828 26.7488C698.492 26.7488 710.012 37.2128 710.012 53.1488C710.012 69.0848 698.492 79.4528 680.828 79.4528C668.444 79.4528 657.884 73.8848 654.044 65.2448H653.948V98.0768H631.196ZM670.172 64.3808C680.54 64.3808 687.26 59.9648 687.26 53.1488C687.26 46.3328 680.54 41.8208 670.172 41.8208C659.9 41.8208 653.084 46.3328 653.084 53.1488C653.084 59.9648 659.9 64.3808 670.172 64.3808Z" fill="url(#paint8_linear_341_4186)"/>
  <path d="M735.432 23.1008C728.136 23.1008 722.856 18.4928 722.856 11.9648C722.856 5.4368 728.136 0.924805 735.432 0.924805C742.728 0.924805 748.008 5.4368 748.008 11.9648C748.008 18.4928 742.728 23.1008 735.432 23.1008ZM724.104 77.9168L722.104 75.9092L724.104 28.3808L744.752 26.3815L746.76 28.3808V77.9168H724.104Z" fill="url(#paint9_linear_341_4186)"/>
  <path d="M799.293 79.4528C783.165 79.4528 773.277 72.1568 773.277 60.2528L773.181 42.2048H759.357L757.359 40.1981L759.357 28.3808H773.181V15.1328L793.843 9.09704L795.837 11.1008V28.3808L824.076 26.3779L826.077 28.3808V42.2048H795.837V55.1648C795.837 61.1168 798.909 64.1888 805.821 64.1888C812.149 64.1888 815.885 59.2314 820.912 54.8946C821.74 55.9106 821.928 56.1319 822.909 56.8928L827.709 69.6608C820.029 76.5728 811.485 79.4528 799.293 79.4528Z" fill="url(#paint10_linear_341_4186)"/>
  <path d="M881.326 79.4528C855.79 79.4528 838.51 69.1808 838.51 53.0528C838.51 37.5968 854.542 26.7488 877.486 26.7488C900.046 26.7488 914.926 37.2128 914.926 53.1488C914.926 54.5888 914.734 56.7008 914.254 58.3328H862.414C865.006 64.0928 873.646 66.3968 882.958 66.3968C892.342 66.3968 900.483 62.1061 905.734 59.4096C906.722 60.3369 906.95 60.6259 907.726 61.4048L913.966 72.1568C907.246 76.4768 894.574 79.4528 881.326 79.4528ZM862.03 48.6368H892.078C891.79 42.9728 885.262 39.1328 877.294 39.1328C869.134 39.1328 862.894 43.0688 862.03 48.6368Z" fill="url(#paint11_linear_341_4186)"/>
  <path d="M968.169 79.4528C943.689 79.4528 927.657 69.0848 927.753 53.1488C927.753 37.2128 943.113 26.7488 966.153 26.7488C985.353 26.7488 999.465 34.4288 1002.06 46.1408L980.937 49.5968C980.299 48.4259 979.827 47.9901 978.955 47.4997C976.967 43.3355 973.525 40.6688 967.113 40.6688C956.937 40.6688 950.409 45.3728 950.409 53.1488C950.409 60.8288 957.225 65.6288 968.457 65.6288C978.153 65.6288 985.161 61.2128 986.697 54.0128L1005.73 55.2697L1007.72 57.2768C1004.94 70.6208 989.289 79.4528 968.169 79.4528Z" fill="url(#paint12_linear_341_4186)"/>
  <path d="M1020.41 77.9168V6.3008L1041.16 4.287L1043.16 6.3008V40.3808H1043.26C1047.96 32.1248 1056.5 26.7488 1068.89 26.7488C1084.63 26.7488 1094.62 35.5808 1094.52 49.8848L1094.42 77.9168H1071.86L1069.87 75.9131L1071.86 52.2848C1071.86 44.4128 1066.97 39.7088 1058.52 39.7088C1048.92 39.7088 1043.06 45.2768 1043.06 54.6848V77.9168H1020.41Z" fill="url(#paint13_linear_341_4186)"/>
  <path d="M1043.06 77.9168H1020.41V85.4169C1020.62 91.273 1018.96 92.6509 1013.95 92.917H759.357L757.357 96.0771L759.357 98.0768H1013.95H1020.41H1031.74C1039.83 97.8151 1042.5 95.7885 1043.06 87.9968V77.9168Z" fill="url(#paint14_linear_341_4186)"/>
  <defs>
    <linearGradient id="paint0_linear_341_4186" x1="48.6262" y1="49.5009" x2="1094.52" y2="49.501" gradientUnits="userSpaceOnUse">
      <stop stop-color="#53BDBF"/>
      <stop offset="1" stop-color="#BE76CE"/>
    </linearGradient>
    <linearGradient id="paint1_linear_341_4186" x1="48.6262" y1="49.5009" x2="1094.52" y2="49.501" gradientUnits="userSpaceOnUse">
      <stop stop-color="#53BDBF"/>
      <stop offset="1" stop-color="#BE76CE"/>
    </linearGradient>
    <linearGradient id="paint2_linear_341_4186" x1="48.6262" y1="49.5009" x2="1094.52" y2="49.501" gradientUnits="userSpaceOnUse">
      <stop stop-color="#53BDBF"/>
      <stop offset="1" stop-color="#BE76CE"/>
    </linearGradient>
    <linearGradient id="paint3_linear_341_4186" x1="48.6262" y1="49.5009" x2="1094.52" y2="49.501" gradientUnits="userSpaceOnUse">
      <stop stop-color="#53BDBF"/>
      <stop offset="1" stop-color="#BE76CE"/>
    </linearGradient>
    <linearGradient id="paint4_linear_341_4186" x1="48.6262" y1="49.5009" x2="1094.52" y2="49.501" gradientUnits="userSpaceOnUse">
      <stop stop-color="#53BDBF"/>
      <stop offset="1" stop-color="#BE76CE"/>
    </linearGradient>
    <linearGradient id="paint5_linear_341_4186" x1="48.6262" y1="49.5009" x2="1094.52" y2="49.501" gradientUnits="userSpaceOnUse">
      <stop stop-color="#53BDBF"/>
      <stop offset="1" stop-color="#BE76CE"/>
    </linearGradient>
    <linearGradient id="paint6_linear_341_4186" x1="48.6262" y1="49.5009" x2="1094.52" y2="49.501" gradientUnits="userSpaceOnUse">
      <stop stop-color="#53BDBF"/>
      <stop offset="1" stop-color="#BE76CE"/>
    </linearGradient>
    <linearGradient id="paint7_linear_341_4186" x1="48.6262" y1="49.5009" x2="1094.52" y2="49.501" gradientUnits="userSpaceOnUse">
      <stop stop-color="#53BDBF"/>
      <stop offset="1" stop-color="#BE76CE"/>
    </linearGradient>
    <linearGradient id="paint8_linear_341_4186" x1="48.6262" y1="49.5009" x2="1094.52" y2="49.501" gradientUnits="userSpaceOnUse">
      <stop stop-color="#53BDBF"/>
      <stop offset="1" stop-color="#BE76CE"/>
    </linearGradient>
    <linearGradient id="paint9_linear_341_4186" x1="48.6262" y1="49.5009" x2="1094.52" y2="49.501" gradientUnits="userSpaceOnUse">
      <stop stop-color="#53BDBF"/>
      <stop offset="1" stop-color="#BE76CE"/>
    </linearGradient>
    <linearGradient id="paint10_linear_341_4186" x1="48.6262" y1="49.5009" x2="1094.52" y2="49.501" gradientUnits="userSpaceOnUse">
      <stop stop-color="#53BDBF"/>
      <stop offset="1" stop-color="#BE76CE"/>
    </linearGradient>
    <linearGradient id="paint11_linear_341_4186" x1="48.6262" y1="49.5009" x2="1094.52" y2="49.501" gradientUnits="userSpaceOnUse">
      <stop stop-color="#53BDBF"/>
      <stop offset="1" stop-color="#BE76CE"/>
    </linearGradient>
    <linearGradient id="paint12_linear_341_4186" x1="48.6262" y1="49.5009" x2="1094.52" y2="49.501" gradientUnits="userSpaceOnUse">
      <stop stop-color="#53BDBF"/>
      <stop offset="1" stop-color="#BE76CE"/>
    </linearGradient>
    <linearGradient id="paint13_linear_341_4186" x1="48.6262" y1="49.5009" x2="1094.52" y2="49.501" gradientUnits="userSpaceOnUse">
      <stop stop-color="#53BDBF"/>
      <stop offset="1" stop-color="#BE76CE"/>
    </linearGradient>
    <linearGradient id="paint14_linear_341_4186" x1="48.6262" y1="49.5009" x2="1094.52" y2="49.501" gradientUnits="userSpaceOnUse">
      <stop stop-color="#53BDBF"/>
      <stop offset="1" stop-color="#BE76CE"/>
    </linearGradient>
  </defs>
</svg>
