<svg xmlns="http://www.w3.org/2000/svg" width="100%" height="100%" viewBox="0 0 176 16" fill="none">
  <path d="M4.30463 12.7903C1.78652 12.7903 0.3125 11.9919 0.3125 10.61C0.3125 9.0285 2.23179 7.9537 5.51762 7.64661L8.54242 7.37023C8.88022 7.33952 9.07982 7.21669 9.07982 7.06314C9.07982 6.67929 8.20463 6.38755 6.8688 6.38755C4.94951 6.38755 2.7999 7.00173 1.29518 7.96905L0.343209 6.08047C1.87864 5.03637 4.36604 4.36078 6.8688 4.36078C10.3542 4.36078 12.6574 5.46629 12.6574 7.41629V12.5446H9.50974L9.01841 10.825H9.00305C8.21998 12.0379 6.48494 12.7903 4.30463 12.7903ZM5.59439 10.6407C7.65187 10.6407 9.01841 9.98047 9.01841 9.01314V8.98244L5.76329 9.27417C4.581 9.36629 3.95148 9.59661 3.95148 10.0112C3.95148 10.4104 4.51959 10.6407 5.59439 10.6407Z" fill="url(#paint0_linear_290_8179)"/>
  <path d="M18.9445 12.8057C16.4264 12.8057 14.8295 11.3931 14.8449 9.10527L14.8602 4.62181H18.4685V8.72141C18.4685 9.98047 19.2516 10.7328 20.6028 10.7328C22.1382 10.7328 23.0748 9.84228 23.0748 8.33755V4.62181H26.6984V12.5446H23.5662L23.1823 10.6253H23.1669C22.4299 11.9458 20.9252 12.8057 18.9445 12.8057Z" fill="url(#paint1_linear_290_8179)"/>
  <path d="M34.817 12.7903C32.5446 12.7903 30.1033 12.2836 28.7674 11.5313L29.7194 9.68874C30.7942 10.349 32.7903 10.8403 34.5867 10.8403C36.3064 10.8403 37.0741 10.5946 37.0741 10.2261C37.0741 9.9037 36.506 9.7348 35.4159 9.65803L33.4505 9.50448C30.7788 9.32023 29.4123 8.67535 29.4123 7.23204C29.4123 5.25133 31.6694 4.36078 34.7863 4.36078C36.4599 4.36078 38.1182 4.71393 39.5155 5.40488L38.6556 7.0785C37.6729 6.57181 36.1682 6.18795 34.7403 6.18795C33.4659 6.18795 32.4832 6.38755 32.4832 6.78677C32.4832 7.09385 32.9592 7.21669 33.9111 7.29346L35.8765 7.46236C38.7785 7.67732 40.2371 8.35291 40.2371 9.9344C40.2371 11.9151 37.9186 12.7903 34.817 12.7903Z" fill="url(#paint2_linear_290_8179)"/>
  <path d="M48.0613 12.7903C45.4818 12.7903 43.9003 11.6234 43.9003 9.71944L43.885 6.83283H41.6739V4.62181H43.885V2.50291L47.5086 1.85803V4.62181H52.3452V6.83283H47.5086V8.90566C47.5086 9.85763 47.9999 10.349 49.1054 10.349C50.1802 10.349 50.9787 9.96511 51.8385 9.18204L52.6062 11.2242C51.3779 12.3297 50.0113 12.7903 48.0613 12.7903Z" fill="url(#paint3_linear_290_8179)"/>
  <path d="M61.4275 4.36078C63.1933 4.36078 64.4063 5.72732 64.5291 7.84622L61.2126 8.4911C61.1511 7.30881 60.6291 6.55645 59.8767 6.55645C58.848 6.55645 58.2338 7.50842 58.2338 9.01314V12.5446H54.5949V4.62181H57.6197L58.111 6.44897H58.1263C58.7098 5.15921 59.9996 4.36078 61.4275 4.36078Z" fill="url(#paint4_linear_290_8179)"/>
  <path d="M69.7794 12.7903C67.2613 12.7903 65.7873 11.9919 65.7873 10.61C65.7873 9.0285 67.7066 7.9537 70.9924 7.64661L74.0172 7.37023C74.355 7.33952 74.5546 7.21669 74.5546 7.06314C74.5546 6.67929 73.6794 6.38755 72.3436 6.38755C70.4243 6.38755 68.2747 7.00173 66.77 7.96905L65.818 6.08047C67.3535 5.03637 69.8409 4.36078 72.3436 4.36078C75.8291 4.36078 78.1322 5.46629 78.1322 7.41629V12.5446H74.9846L74.4932 10.825H74.4779C73.6948 12.0379 71.9598 12.7903 69.7794 12.7903ZM71.0692 10.6407C73.1267 10.6407 74.4932 9.98047 74.4932 9.01314V8.98244L71.2381 9.27417C70.0558 9.36629 69.4263 9.59661 69.4263 10.0112C69.4263 10.4104 69.9944 10.6407 71.0692 10.6407Z" fill="url(#paint5_linear_290_8179)"/>
  <path d="M80.4579 12.5446V1.09031H84.0969V12.5446H80.4579Z" fill="url(#paint6_linear_290_8179)"/>
  <path d="M92.6551 12.7903C88.8165 12.7903 86.2984 11.132 86.2984 8.58322C86.2984 6.0344 88.8165 4.36078 92.6551 4.36078C96.5091 4.36078 99.0272 6.0344 99.0272 8.58322C99.0272 11.132 96.5091 12.7903 92.6551 12.7903ZM92.6551 10.6714C94.3134 10.6714 95.3882 9.84228 95.3882 8.58322C95.3882 7.32417 94.3134 6.49504 92.6551 6.49504C90.9968 6.49504 89.922 7.32417 89.922 8.58322C89.922 9.84228 90.9968 10.6714 92.6551 10.6714Z" fill="url(#paint7_linear_290_8179)"/>
  <path d="M101.208 15.769V4.62181H104.34L104.816 6.66393H104.831C105.446 5.26669 107.15 4.36078 109.146 4.36078C111.971 4.36078 113.814 6.0344 113.814 8.58322C113.814 11.132 111.971 12.7903 109.146 12.7903C107.165 12.7903 105.476 11.8998 104.862 10.5179H104.847V15.769H101.208ZM107.442 10.3797C109.1 10.3797 110.175 9.67338 110.175 8.58322C110.175 7.49307 109.1 6.77141 107.442 6.77141C105.799 6.77141 104.709 7.49307 104.709 8.58322C104.709 9.67338 105.799 10.3797 107.442 10.3797Z" fill="url(#paint8_linear_290_8179)"/>
  <path d="M117.879 3.77732C116.712 3.77732 115.868 3.04031 115.868 1.99622C115.868 0.952122 116.712 0.230469 117.879 0.230469C119.046 0.230469 119.891 0.952122 119.891 1.99622C119.891 3.04031 119.046 3.77732 117.879 3.77732ZM116.068 12.5446V4.62181H119.691V12.5446H116.068Z" fill="url(#paint9_linear_290_8179)"/>
  <path d="M128.093 12.7903C125.514 12.7903 123.932 11.6234 123.932 9.71944L123.917 6.83283H121.706V4.62181H123.917V2.50291L127.541 1.85803V4.62181H132.377V6.83283H127.541V8.90566C127.541 9.85763 128.032 10.349 129.137 10.349C130.212 10.349 131.011 9.96511 131.871 9.18204L132.638 11.2242C131.41 12.3297 130.043 12.7903 128.093 12.7903Z" fill="url(#paint10_linear_290_8179)"/>
  <path d="M141.214 12.7903C137.13 12.7903 134.366 11.1474 134.366 8.56787C134.366 6.09582 136.93 4.36078 140.6 4.36078C144.208 4.36078 146.588 6.0344 146.588 8.58322C146.588 8.81354 146.557 9.15133 146.48 9.41236H138.189C138.604 10.3336 139.986 10.7021 141.475 10.7021C143.041 10.7021 144.623 10.3643 145.436 9.9037L146.434 11.6234C145.36 12.3143 143.333 12.7903 141.214 12.7903ZM138.128 7.86157H142.934C142.888 6.95566 141.843 6.34149 140.569 6.34149C139.264 6.34149 138.266 6.97102 138.128 7.86157Z" fill="url(#paint11_linear_290_8179)"/>
  <path d="M155.104 12.7903C151.188 12.7903 148.624 11.132 148.639 8.58322C148.639 6.0344 151.096 4.36078 154.781 4.36078C157.852 4.36078 160.109 5.58913 160.524 7.46236L157.146 8.01511C156.946 7.13992 156.132 6.58716 154.935 6.58716C153.307 6.58716 152.263 7.33952 152.263 8.58322C152.263 9.81157 153.353 10.5793 155.15 10.5793C156.7 10.5793 157.821 9.87299 158.067 8.72141L161.43 9.24346C160.984 11.3777 158.482 12.7903 155.104 12.7903Z" fill="url(#paint12_linear_290_8179)"/>
  <path d="M163.459 12.5446V1.09031H167.098V6.5411H167.113C167.866 5.22063 169.232 4.36078 171.213 4.36078C173.731 4.36078 175.328 5.77338 175.312 8.06118L175.297 12.5446H171.689V8.44503C171.689 7.18598 170.906 6.43362 169.555 6.43362C168.019 6.43362 167.082 7.32417 167.082 8.82889V12.5446H163.459Z" fill="url(#paint13_linear_290_8179)"/>
  <path d="M167.082 12.5446H163.459V13.7442C163.493 14.6808 163.227 14.9012 162.425 14.9438H121.706V15.769H162.425H163.459H165.271C166.565 15.7272 166.991 15.4031 167.082 14.1568V12.5446Z" fill="url(#paint14_linear_290_8179)"/>
  <defs>
    <linearGradient id="paint0_linear_290_8179" x1="0.3125" y1="8.00001" x2="170.602" y2="8.00003" gradientUnits="userSpaceOnUse">
      <stop stop-color="#2FC2C5"/>
      <stop offset="1" stop-color="#905F9B"/>
    </linearGradient>
    <linearGradient id="paint1_linear_290_8179" x1="0.3125" y1="8.00001" x2="170.602" y2="8.00003" gradientUnits="userSpaceOnUse">
      <stop stop-color="#2FC2C5"/>
      <stop offset="1" stop-color="#905F9B"/>
    </linearGradient>
    <linearGradient id="paint2_linear_290_8179" x1="0.3125" y1="8.00001" x2="170.602" y2="8.00003" gradientUnits="userSpaceOnUse">
      <stop stop-color="#2FC2C5"/>
      <stop offset="1" stop-color="#905F9B"/>
    </linearGradient>
    <linearGradient id="paint3_linear_290_8179" x1="0.3125" y1="8.00001" x2="170.602" y2="8.00003" gradientUnits="userSpaceOnUse">
      <stop stop-color="#2FC2C5"/>
      <stop offset="1" stop-color="#905F9B"/>
    </linearGradient>
    <linearGradient id="paint4_linear_290_8179" x1="0.3125" y1="8.00001" x2="170.602" y2="8.00003" gradientUnits="userSpaceOnUse">
      <stop stop-color="#2FC2C5"/>
      <stop offset="1" stop-color="#905F9B"/>
    </linearGradient>
    <linearGradient id="paint5_linear_290_8179" x1="0.3125" y1="8.00001" x2="170.602" y2="8.00003" gradientUnits="userSpaceOnUse">
      <stop stop-color="#2FC2C5"/>
      <stop offset="1" stop-color="#905F9B"/>
    </linearGradient>
    <linearGradient id="paint6_linear_290_8179" x1="0.3125" y1="8.00001" x2="170.602" y2="8.00003" gradientUnits="userSpaceOnUse">
      <stop stop-color="#2FC2C5"/>
      <stop offset="1" stop-color="#905F9B"/>
    </linearGradient>
    <linearGradient id="paint7_linear_290_8179" x1="0.3125" y1="8.00001" x2="170.602" y2="8.00003" gradientUnits="userSpaceOnUse">
      <stop stop-color="#2FC2C5"/>
      <stop offset="1" stop-color="#905F9B"/>
    </linearGradient>
    <linearGradient id="paint8_linear_290_8179" x1="0.3125" y1="8.00001" x2="170.602" y2="8.00003" gradientUnits="userSpaceOnUse">
      <stop stop-color="#2FC2C5"/>
      <stop offset="1" stop-color="#905F9B"/>
    </linearGradient>
    <linearGradient id="paint9_linear_290_8179" x1="0.3125" y1="8.00001" x2="170.602" y2="8.00003" gradientUnits="userSpaceOnUse">
      <stop stop-color="#2FC2C5"/>
      <stop offset="1" stop-color="#905F9B"/>
    </linearGradient>
    <linearGradient id="paint10_linear_290_8179" x1="0.3125" y1="8.00001" x2="170.602" y2="8.00003" gradientUnits="userSpaceOnUse">
      <stop stop-color="#2FC2C5"/>
      <stop offset="1" stop-color="#905F9B"/>
    </linearGradient>
    <linearGradient id="paint11_linear_290_8179" x1="0.3125" y1="8.00001" x2="170.602" y2="8.00003" gradientUnits="userSpaceOnUse">
      <stop stop-color="#2FC2C5"/>
      <stop offset="1" stop-color="#905F9B"/>
    </linearGradient>
    <linearGradient id="paint12_linear_290_8179" x1="0.3125" y1="8.00001" x2="170.602" y2="8.00003" gradientUnits="userSpaceOnUse">
      <stop stop-color="#2FC2C5"/>
      <stop offset="1" stop-color="#905F9B"/>
    </linearGradient>
    <linearGradient id="paint13_linear_290_8179" x1="0.3125" y1="8.00001" x2="170.602" y2="8.00003" gradientUnits="userSpaceOnUse">
      <stop stop-color="#2FC2C5"/>
      <stop offset="1" stop-color="#905F9B"/>
    </linearGradient>
    <linearGradient id="paint14_linear_290_8179" x1="0.3125" y1="8.00001" x2="170.602" y2="8.00003" gradientUnits="userSpaceOnUse">
      <stop stop-color="#2FC2C5"/>
      <stop offset="1" stop-color="#905F9B"/>
    </linearGradient>
  </defs>
</svg>