<svg width="1094" height="141" viewBox="0 0 1094 141" fill="none" xmlns="http://www.w3.org/2000/svg">
<mask id="path-1-inside-1_452_124" fill="white">
<path d="M24.9565 113.97C9.2147 113.97 0 106.725 0 94.1858C0 79.835 11.9983 70.082 32.5394 67.2955L51.4488 64.7875C53.5605 64.5089 54.8083 63.3943 54.8083 62.001C54.8083 58.5178 49.3371 55.8706 40.9862 55.8706C28.9879 55.8706 15.5498 61.4437 6.14314 70.2213L0.191973 53.084C9.79062 43.6097 25.3404 37.4792 40.9862 37.4792C62.7752 37.4792 77.1731 47.5109 77.1731 65.2055V111.741H57.4959L54.4243 96.1364H54.3284C49.433 107.143 38.5866 113.97 24.9565 113.97ZM33.0194 94.4644C45.8815 94.4644 54.4243 88.4733 54.4243 79.6956V79.417L34.0752 82.0642C26.6842 82.9002 22.7488 84.9901 22.7488 88.752C22.7488 92.3745 26.3003 94.4644 33.0194 94.4644Z"/>
<path d="M116.477 114.11C100.735 114.11 90.7522 101.291 90.8482 80.5316L90.9442 39.8478H113.501V77.0484C113.501 88.4733 118.396 95.3004 126.843 95.3004C136.442 95.3004 142.297 87.2194 142.297 73.5652V39.8478H164.95V111.741H145.369L142.969 94.3251H142.873C138.266 106.307 128.859 114.11 116.477 114.11Z"/>
<path d="M215.703 113.97C201.497 113.97 186.235 109.373 177.884 102.545L183.835 85.8261C190.554 91.8172 203.032 96.2757 214.263 96.2757C225.013 96.2757 229.813 94.0464 229.813 90.7026C229.813 87.7767 226.261 86.2441 219.446 85.5474L207.16 84.1541C190.458 82.4822 181.915 76.6304 181.915 63.5336C181.915 45.5603 196.025 37.4792 215.511 37.4792C225.973 37.4792 236.34 40.6838 245.075 46.9536L239.699 62.1403C233.556 57.5425 224.149 54.0593 215.223 54.0593C207.256 54.0593 201.113 55.8706 201.113 59.4931C201.113 62.2796 204.088 63.3943 210.039 64.0909L222.326 65.6235C240.467 67.5741 249.586 73.7045 249.586 88.0553C249.586 106.029 235.092 113.97 215.703 113.97Z"/>
<path d="M298.498 113.97C282.373 113.97 272.486 103.381 272.486 86.1047L272.39 59.9111H258.568V39.8478H272.39V20.6206L295.043 14.7688V39.8478H325.279V59.9111H295.043V78.7204C295.043 87.3587 298.115 91.8172 305.026 91.8172C311.745 91.8172 316.736 88.334 322.111 81.2283L326.91 99.7589C319.232 109.791 310.689 113.97 298.498 113.97Z"/>
<path d="M382.056 37.4792C393.095 37.4792 400.678 49.8794 401.445 69.1067L380.712 74.9585C380.328 64.2302 377.065 57.4032 372.362 57.4032C365.93 57.4032 362.091 66.0415 362.091 79.6956V111.741H339.342V39.8478H358.252L361.323 56.4279H361.419C365.067 44.7243 373.129 37.4792 382.056 37.4792Z"/>
<path d="M434.268 113.97C418.526 113.97 409.311 106.725 409.311 94.1858C409.311 79.835 421.309 70.082 441.851 67.2955L460.76 64.7875C462.872 64.5089 464.119 63.3943 464.119 62.001C464.119 58.5178 458.648 55.8706 450.297 55.8706C438.299 55.8706 424.861 61.4437 415.454 70.2213L409.503 53.084C419.102 43.6097 434.652 37.4792 450.297 37.4792C472.086 37.4792 486.484 47.5109 486.484 65.2055V111.741H466.807L463.735 96.1364H463.639C458.744 107.143 447.898 113.97 434.268 113.97ZM442.33 94.4644C455.193 94.4644 463.735 88.4733 463.735 79.6956V79.417L443.386 82.0642C435.995 82.9002 432.06 84.9901 432.06 88.752C432.06 92.3745 435.611 94.4644 442.33 94.4644Z"/>
<path d="M501.023 111.741V7.80237H523.772V111.741H501.023Z"/>
<path d="M577.273 113.97C553.277 113.97 537.535 98.9229 537.535 75.7945C537.535 52.666 553.277 37.4792 577.273 37.4792C601.366 37.4792 617.108 52.666 617.108 75.7945C617.108 98.9229 601.366 113.97 577.273 113.97ZM577.273 94.7431C587.64 94.7431 594.359 87.2194 594.359 75.7945C594.359 64.3696 587.64 56.8458 577.273 56.8458C566.907 56.8458 560.188 64.3696 560.188 75.7945C560.188 87.2194 566.907 94.7431 577.273 94.7431Z"/>
<path d="M630.74 141V39.8478H650.321L653.297 58.3785H653.393C657.232 45.6996 667.887 37.4792 680.365 37.4792C698.026 37.4792 709.545 52.666 709.545 75.7945C709.545 98.9229 698.026 113.97 680.365 113.97C667.983 113.97 657.424 105.889 653.585 93.3498H653.489V141H630.74ZM669.71 92.0959C680.077 92.0959 686.796 85.6868 686.796 75.7945C686.796 65.9022 680.077 59.3538 669.71 59.3538C659.44 59.3538 652.625 65.9022 652.625 75.7945C652.625 85.6868 659.44 92.0959 669.71 92.0959Z"/>
<path d="M734.961 32.1848C727.666 32.1848 722.387 25.497 722.387 16.0227C722.387 6.54842 727.666 0 734.961 0C742.256 0 747.535 6.54842 747.535 16.0227C747.535 25.497 742.256 32.1848 734.961 32.1848ZM723.635 111.741V39.8478H746.287V111.741H723.635Z"/>
<path d="M798.813 113.97C782.687 113.97 772.801 103.381 772.801 86.1047L772.705 59.9111H758.883V39.8478H772.705V20.6206L795.357 14.7688V39.8478H825.593V59.9111H795.357V78.7204C795.357 87.3587 798.429 91.8172 805.34 91.8172C812.059 91.8172 817.05 88.334 822.426 81.2283L827.225 99.7589C819.546 109.791 811.003 113.97 798.813 113.97Z"/>
<path d="M880.835 113.97C855.303 113.97 838.025 99.0623 838.025 75.6551C838.025 53.2233 854.055 37.4792 876.995 37.4792C899.552 37.4792 914.43 52.666 914.43 75.7945C914.43 77.8844 914.238 80.9496 913.758 83.3182H861.926C864.517 91.6779 873.156 95.0217 882.467 95.0217C892.257 95.0217 902.144 91.9565 907.231 87.7767L913.47 103.381C906.751 109.651 894.081 113.97 880.835 113.97ZM861.542 69.2461H891.585C891.297 61.0257 884.77 55.4526 876.804 55.4526C868.645 55.4526 862.406 61.165 861.542 69.2461Z"/>
<path d="M967.665 113.97C943.189 113.97 927.159 98.9229 927.255 75.7945C927.255 52.666 942.613 37.4792 965.649 37.4792C984.847 37.4792 998.957 48.6255 1001.55 65.6235L980.431 70.6393C979.184 62.6976 974.096 57.6818 966.609 57.6818C956.435 57.6818 949.908 64.5089 949.908 75.7945C949.908 86.9407 956.723 93.9071 967.953 93.9071C977.648 93.9071 984.655 87.498 986.191 77.0484L1007.21 81.7856C1004.43 101.152 988.782 113.97 967.665 113.97Z"/>
<path d="M1019.9 111.741V7.80237H1042.65V57.2638H1042.74C1047.45 45.2816 1055.99 37.4792 1068.37 37.4792C1084.11 37.4792 1094.1 50.2974 1094 71.0573L1093.9 111.741H1071.35V74.5405C1071.35 63.1156 1066.45 56.2885 1058 56.2885C1048.41 56.2885 1042.55 64.3696 1042.55 78.0237V111.741V126.371C1041.98 137.679 1039.32 140.62 1031.22 141H1019.9H1013.44H758.883V133.511H1013.44C1018.45 133.125 1020.11 131.125 1019.9 122.626V111.741Z"/>
</mask>
<path d="M24.9565 113.97C9.2147 113.97 0 106.725 0 94.1858C0 79.835 11.9983 70.082 32.5394 67.2955L51.4488 64.7875C53.5605 64.5089 54.8083 63.3943 54.8083 62.001C54.8083 58.5178 49.3371 55.8706 40.9862 55.8706C28.9879 55.8706 15.5498 61.4437 6.14314 70.2213L0.191973 53.084C9.79062 43.6097 25.3404 37.4792 40.9862 37.4792C62.7752 37.4792 77.1731 47.5109 77.1731 65.2055V111.741H57.4959L54.4243 96.1364H54.3284C49.433 107.143 38.5866 113.97 24.9565 113.97ZM33.0194 94.4644C45.8815 94.4644 54.4243 88.4733 54.4243 79.6956V79.417L34.0752 82.0642C26.6842 82.9002 22.7488 84.9901 22.7488 88.752C22.7488 92.3745 26.3003 94.4644 33.0194 94.4644Z" fill="url(#paint0_linear_452_124)"/>
<path d="M116.477 114.11C100.735 114.11 90.7522 101.291 90.8482 80.5316L90.9442 39.8478H113.501V77.0484C113.501 88.4733 118.396 95.3004 126.843 95.3004C136.442 95.3004 142.297 87.2194 142.297 73.5652V39.8478H164.95V111.741H145.369L142.969 94.3251H142.873C138.266 106.307 128.859 114.11 116.477 114.11Z" fill="url(#paint1_linear_452_124)"/>
<path d="M215.703 113.97C201.497 113.97 186.235 109.373 177.884 102.545L183.835 85.8261C190.554 91.8172 203.032 96.2757 214.263 96.2757C225.013 96.2757 229.813 94.0464 229.813 90.7026C229.813 87.7767 226.261 86.2441 219.446 85.5474L207.16 84.1541C190.458 82.4822 181.915 76.6304 181.915 63.5336C181.915 45.5603 196.025 37.4792 215.511 37.4792C225.973 37.4792 236.34 40.6838 245.075 46.9536L239.699 62.1403C233.556 57.5425 224.149 54.0593 215.223 54.0593C207.256 54.0593 201.113 55.8706 201.113 59.4931C201.113 62.2796 204.088 63.3943 210.039 64.0909L222.326 65.6235C240.467 67.5741 249.586 73.7045 249.586 88.0553C249.586 106.029 235.092 113.97 215.703 113.97Z" fill="url(#paint2_linear_452_124)"/>
<path d="M298.498 113.97C282.373 113.97 272.486 103.381 272.486 86.1047L272.39 59.9111H258.568V39.8478H272.39V20.6206L295.043 14.7688V39.8478H325.279V59.9111H295.043V78.7204C295.043 87.3587 298.115 91.8172 305.026 91.8172C311.745 91.8172 316.736 88.334 322.111 81.2283L326.91 99.7589C319.232 109.791 310.689 113.97 298.498 113.97Z" fill="url(#paint3_linear_452_124)"/>
<path d="M382.056 37.4792C393.095 37.4792 400.678 49.8794 401.445 69.1067L380.712 74.9585C380.328 64.2302 377.065 57.4032 372.362 57.4032C365.93 57.4032 362.091 66.0415 362.091 79.6956V111.741H339.342V39.8478H358.252L361.323 56.4279H361.419C365.067 44.7243 373.129 37.4792 382.056 37.4792Z" fill="url(#paint4_linear_452_124)"/>
<path d="M434.268 113.97C418.526 113.97 409.311 106.725 409.311 94.1858C409.311 79.835 421.309 70.082 441.851 67.2955L460.76 64.7875C462.872 64.5089 464.119 63.3943 464.119 62.001C464.119 58.5178 458.648 55.8706 450.297 55.8706C438.299 55.8706 424.861 61.4437 415.454 70.2213L409.503 53.084C419.102 43.6097 434.652 37.4792 450.297 37.4792C472.086 37.4792 486.484 47.5109 486.484 65.2055V111.741H466.807L463.735 96.1364H463.639C458.744 107.143 447.898 113.97 434.268 113.97ZM442.33 94.4644C455.193 94.4644 463.735 88.4733 463.735 79.6956V79.417L443.386 82.0642C435.995 82.9002 432.06 84.9901 432.06 88.752C432.06 92.3745 435.611 94.4644 442.33 94.4644Z" fill="url(#paint5_linear_452_124)"/>
<path d="M501.023 111.741V7.80237H523.772V111.741H501.023Z" fill="url(#paint6_linear_452_124)"/>
<path d="M577.273 113.97C553.277 113.97 537.535 98.9229 537.535 75.7945C537.535 52.666 553.277 37.4792 577.273 37.4792C601.366 37.4792 617.108 52.666 617.108 75.7945C617.108 98.9229 601.366 113.97 577.273 113.97ZM577.273 94.7431C587.64 94.7431 594.359 87.2194 594.359 75.7945C594.359 64.3696 587.64 56.8458 577.273 56.8458C566.907 56.8458 560.188 64.3696 560.188 75.7945C560.188 87.2194 566.907 94.7431 577.273 94.7431Z" fill="url(#paint7_linear_452_124)"/>
<path d="M630.74 141V39.8478H650.321L653.297 58.3785H653.393C657.232 45.6996 667.887 37.4792 680.365 37.4792C698.026 37.4792 709.545 52.666 709.545 75.7945C709.545 98.9229 698.026 113.97 680.365 113.97C667.983 113.97 657.424 105.889 653.585 93.3498H653.489V141H630.74ZM669.71 92.0959C680.077 92.0959 686.796 85.6868 686.796 75.7945C686.796 65.9022 680.077 59.3538 669.71 59.3538C659.44 59.3538 652.625 65.9022 652.625 75.7945C652.625 85.6868 659.44 92.0959 669.71 92.0959Z" fill="url(#paint8_linear_452_124)"/>
<path d="M734.961 32.1848C727.666 32.1848 722.387 25.497 722.387 16.0227C722.387 6.54842 727.666 0 734.961 0C742.256 0 747.535 6.54842 747.535 16.0227C747.535 25.497 742.256 32.1848 734.961 32.1848ZM723.635 111.741V39.8478H746.287V111.741H723.635Z" fill="url(#paint9_linear_452_124)"/>
<path d="M798.813 113.97C782.687 113.97 772.801 103.381 772.801 86.1047L772.705 59.9111H758.883V39.8478H772.705V20.6206L795.357 14.7688V39.8478H825.593V59.9111H795.357V78.7204C795.357 87.3587 798.429 91.8172 805.34 91.8172C812.059 91.8172 817.05 88.334 822.426 81.2283L827.225 99.7589C819.546 109.791 811.003 113.97 798.813 113.97Z" fill="url(#paint10_linear_452_124)"/>
<path d="M880.835 113.97C855.303 113.97 838.025 99.0623 838.025 75.6551C838.025 53.2233 854.055 37.4792 876.995 37.4792C899.552 37.4792 914.43 52.666 914.43 75.7945C914.43 77.8844 914.238 80.9496 913.758 83.3182H861.926C864.517 91.6779 873.156 95.0217 882.467 95.0217C892.257 95.0217 902.144 91.9565 907.231 87.7767L913.47 103.381C906.751 109.651 894.081 113.97 880.835 113.97ZM861.542 69.2461H891.585C891.297 61.0257 884.77 55.4526 876.804 55.4526C868.645 55.4526 862.406 61.165 861.542 69.2461Z" fill="url(#paint11_linear_452_124)"/>
<path d="M967.665 113.97C943.189 113.97 927.159 98.9229 927.255 75.7945C927.255 52.666 942.613 37.4792 965.649 37.4792C984.847 37.4792 998.957 48.6255 1001.55 65.6235L980.431 70.6393C979.184 62.6976 974.096 57.6818 966.609 57.6818C956.435 57.6818 949.908 64.5089 949.908 75.7945C949.908 86.9407 956.723 93.9071 967.953 93.9071C977.648 93.9071 984.655 87.498 986.191 77.0484L1007.21 81.7856C1004.43 101.152 988.782 113.97 967.665 113.97Z" fill="url(#paint12_linear_452_124)"/>
<path d="M1019.9 111.741V7.80237H1042.65V57.2638H1042.74C1047.45 45.2816 1055.99 37.4792 1068.37 37.4792C1084.11 37.4792 1094.1 50.2974 1094 71.0573L1093.9 111.741H1071.35V74.5405C1071.35 63.1156 1066.45 56.2885 1058 56.2885C1048.41 56.2885 1042.55 64.3696 1042.55 78.0237V111.741V126.371C1041.98 137.679 1039.32 140.62 1031.22 141H1019.9H1013.44H758.883V133.511H1013.44C1018.45 133.125 1020.11 131.125 1019.9 122.626V111.741Z" fill="url(#paint13_linear_452_124)"/>
<path d="M24.9565 113.97C9.2147 113.97 0 106.725 0 94.1858C0 79.835 11.9983 70.082 32.5394 67.2955L51.4488 64.7875C53.5605 64.5089 54.8083 63.3943 54.8083 62.001C54.8083 58.5178 49.3371 55.8706 40.9862 55.8706C28.9879 55.8706 15.5498 61.4437 6.14314 70.2213L0.191973 53.084C9.79062 43.6097 25.3404 37.4792 40.9862 37.4792C62.7752 37.4792 77.1731 47.5109 77.1731 65.2055V111.741H57.4959L54.4243 96.1364H54.3284C49.433 107.143 38.5866 113.97 24.9565 113.97ZM33.0194 94.4644C45.8815 94.4644 54.4243 88.4733 54.4243 79.6956V79.417L34.0752 82.0642C26.6842 82.9002 22.7488 84.9901 22.7488 88.752C22.7488 92.3745 26.3003 94.4644 33.0194 94.4644Z" stroke="#121717" mask="url(#path-1-inside-1_452_124)"/>
<path d="M116.477 114.11C100.735 114.11 90.7522 101.291 90.8482 80.5316L90.9442 39.8478H113.501V77.0484C113.501 88.4733 118.396 95.3004 126.843 95.3004C136.442 95.3004 142.297 87.2194 142.297 73.5652V39.8478H164.95V111.741H145.369L142.969 94.3251H142.873C138.266 106.307 128.859 114.11 116.477 114.11Z" stroke="#121717" mask="url(#path-1-inside-1_452_124)"/>
<path d="M215.703 113.97C201.497 113.97 186.235 109.373 177.884 102.545L183.835 85.8261C190.554 91.8172 203.032 96.2757 214.263 96.2757C225.013 96.2757 229.813 94.0464 229.813 90.7026C229.813 87.7767 226.261 86.2441 219.446 85.5474L207.16 84.1541C190.458 82.4822 181.915 76.6304 181.915 63.5336C181.915 45.5603 196.025 37.4792 215.511 37.4792C225.973 37.4792 236.34 40.6838 245.075 46.9536L239.699 62.1403C233.556 57.5425 224.149 54.0593 215.223 54.0593C207.256 54.0593 201.113 55.8706 201.113 59.4931C201.113 62.2796 204.088 63.3943 210.039 64.0909L222.326 65.6235C240.467 67.5741 249.586 73.7045 249.586 88.0553C249.586 106.029 235.092 113.97 215.703 113.97Z" stroke="#121717" mask="url(#path-1-inside-1_452_124)"/>
<path d="M298.498 113.97C282.373 113.97 272.486 103.381 272.486 86.1047L272.39 59.9111H258.568V39.8478H272.39V20.6206L295.043 14.7688V39.8478H325.279V59.9111H295.043V78.7204C295.043 87.3587 298.115 91.8172 305.026 91.8172C311.745 91.8172 316.736 88.334 322.111 81.2283L326.91 99.7589C319.232 109.791 310.689 113.97 298.498 113.97Z" stroke="#121717" mask="url(#path-1-inside-1_452_124)"/>
<path d="M382.056 37.4792C393.095 37.4792 400.678 49.8794 401.445 69.1067L380.712 74.9585C380.328 64.2302 377.065 57.4032 372.362 57.4032C365.93 57.4032 362.091 66.0415 362.091 79.6956V111.741H339.342V39.8478H358.252L361.323 56.4279H361.419C365.067 44.7243 373.129 37.4792 382.056 37.4792Z" stroke="#121717" mask="url(#path-1-inside-1_452_124)"/>
<path d="M434.268 113.97C418.526 113.97 409.311 106.725 409.311 94.1858C409.311 79.835 421.309 70.082 441.851 67.2955L460.76 64.7875C462.872 64.5089 464.119 63.3943 464.119 62.001C464.119 58.5178 458.648 55.8706 450.297 55.8706C438.299 55.8706 424.861 61.4437 415.454 70.2213L409.503 53.084C419.102 43.6097 434.652 37.4792 450.297 37.4792C472.086 37.4792 486.484 47.5109 486.484 65.2055V111.741H466.807L463.735 96.1364H463.639C458.744 107.143 447.898 113.97 434.268 113.97ZM442.33 94.4644C455.193 94.4644 463.735 88.4733 463.735 79.6956V79.417L443.386 82.0642C435.995 82.9002 432.06 84.9901 432.06 88.752C432.06 92.3745 435.611 94.4644 442.33 94.4644Z" stroke="#121717" mask="url(#path-1-inside-1_452_124)"/>
<path d="M501.023 111.741V7.80237H523.772V111.741H501.023Z" stroke="#121717" mask="url(#path-1-inside-1_452_124)"/>
<path d="M577.273 113.97C553.277 113.97 537.535 98.9229 537.535 75.7945C537.535 52.666 553.277 37.4792 577.273 37.4792C601.366 37.4792 617.108 52.666 617.108 75.7945C617.108 98.9229 601.366 113.97 577.273 113.97ZM577.273 94.7431C587.64 94.7431 594.359 87.2194 594.359 75.7945C594.359 64.3696 587.64 56.8458 577.273 56.8458C566.907 56.8458 560.188 64.3696 560.188 75.7945C560.188 87.2194 566.907 94.7431 577.273 94.7431Z" stroke="#121717" mask="url(#path-1-inside-1_452_124)"/>
<path d="M630.74 141V39.8478H650.321L653.297 58.3785H653.393C657.232 45.6996 667.887 37.4792 680.365 37.4792C698.026 37.4792 709.545 52.666 709.545 75.7945C709.545 98.9229 698.026 113.97 680.365 113.97C667.983 113.97 657.424 105.889 653.585 93.3498H653.489V141H630.74ZM669.71 92.0959C680.077 92.0959 686.796 85.6868 686.796 75.7945C686.796 65.9022 680.077 59.3538 669.71 59.3538C659.44 59.3538 652.625 65.9022 652.625 75.7945C652.625 85.6868 659.44 92.0959 669.71 92.0959Z" stroke="#121717" mask="url(#path-1-inside-1_452_124)"/>
<path d="M734.961 32.1848C727.666 32.1848 722.387 25.497 722.387 16.0227C722.387 6.54842 727.666 0 734.961 0C742.256 0 747.535 6.54842 747.535 16.0227C747.535 25.497 742.256 32.1848 734.961 32.1848ZM723.635 111.741V39.8478H746.287V111.741H723.635Z" stroke="#121717" mask="url(#path-1-inside-1_452_124)"/>
<path d="M798.813 113.97C782.687 113.97 772.801 103.381 772.801 86.1047L772.705 59.9111H758.883V39.8478H772.705V20.6206L795.357 14.7688V39.8478H825.593V59.9111H795.357V78.7204C795.357 87.3587 798.429 91.8172 805.34 91.8172C812.059 91.8172 817.05 88.334 822.426 81.2283L827.225 99.7589C819.546 109.791 811.003 113.97 798.813 113.97Z" stroke="#121717" mask="url(#path-1-inside-1_452_124)"/>
<path d="M880.835 113.97C855.303 113.97 838.025 99.0623 838.025 75.6551C838.025 53.2233 854.055 37.4792 876.995 37.4792C899.552 37.4792 914.43 52.666 914.43 75.7945C914.43 77.8844 914.238 80.9496 913.758 83.3182H861.926C864.517 91.6779 873.156 95.0217 882.467 95.0217C892.257 95.0217 902.144 91.9565 907.231 87.7767L913.47 103.381C906.751 109.651 894.081 113.97 880.835 113.97ZM861.542 69.2461H891.585C891.297 61.0257 884.77 55.4526 876.804 55.4526C868.645 55.4526 862.406 61.165 861.542 69.2461Z" stroke="#121717" mask="url(#path-1-inside-1_452_124)"/>
<path d="M967.665 113.97C943.189 113.97 927.159 98.9229 927.255 75.7945C927.255 52.666 942.613 37.4792 965.649 37.4792C984.847 37.4792 998.957 48.6255 1001.55 65.6235L980.431 70.6393C979.184 62.6976 974.096 57.6818 966.609 57.6818C956.435 57.6818 949.908 64.5089 949.908 75.7945C949.908 86.9407 956.723 93.9071 967.953 93.9071C977.648 93.9071 984.655 87.498 986.191 77.0484L1007.21 81.7856C1004.43 101.152 988.782 113.97 967.665 113.97Z" stroke="#121717" mask="url(#path-1-inside-1_452_124)"/>
<path d="M1019.9 111.741V7.80237H1042.65V57.2638H1042.74C1047.45 45.2816 1055.99 37.4792 1068.37 37.4792C1084.11 37.4792 1094.1 50.2974 1094 71.0573L1093.9 111.741H1071.35V74.5405C1071.35 63.1156 1066.45 56.2885 1058 56.2885C1048.41 56.2885 1042.55 64.3696 1042.55 78.0237V111.741V126.371C1041.98 137.679 1039.32 140.62 1031.22 141H1019.9H1013.44H758.883V133.511H1013.44C1018.45 133.125 1020.11 131.125 1019.9 122.626V111.741Z" stroke="#121717" mask="url(#path-1-inside-1_452_124)"/>
<defs>
<linearGradient id="paint0_linear_452_124" x1="2.37746e-06" y1="71" x2="1094" y2="71" gradientUnits="userSpaceOnUse">
<stop stop-color="#58BABF"/>
<stop offset="1" stop-color="#7BA4C4"/>
</linearGradient>
<linearGradient id="paint1_linear_452_124" x1="2.37746e-06" y1="71" x2="1094" y2="71" gradientUnits="userSpaceOnUse">
<stop stop-color="#58BABF"/>
<stop offset="1" stop-color="#7BA4C4"/>
</linearGradient>
<linearGradient id="paint2_linear_452_124" x1="2.37746e-06" y1="71" x2="1094" y2="71" gradientUnits="userSpaceOnUse">
<stop stop-color="#58BABF"/>
<stop offset="1" stop-color="#7BA4C4"/>
</linearGradient>
<linearGradient id="paint3_linear_452_124" x1="2.37746e-06" y1="71" x2="1094" y2="71" gradientUnits="userSpaceOnUse">
<stop stop-color="#58BABF"/>
<stop offset="1" stop-color="#7BA4C4"/>
</linearGradient>
<linearGradient id="paint4_linear_452_124" x1="2.37746e-06" y1="71" x2="1094" y2="71" gradientUnits="userSpaceOnUse">
<stop stop-color="#58BABF"/>
<stop offset="1" stop-color="#7BA4C4"/>
</linearGradient>
<linearGradient id="paint5_linear_452_124" x1="2.37746e-06" y1="71" x2="1094" y2="71" gradientUnits="userSpaceOnUse">
<stop stop-color="#58BABF"/>
<stop offset="1" stop-color="#7BA4C4"/>
</linearGradient>
<linearGradient id="paint6_linear_452_124" x1="2.37746e-06" y1="71" x2="1094" y2="71" gradientUnits="userSpaceOnUse">
<stop stop-color="#58BABF"/>
<stop offset="1" stop-color="#7BA4C4"/>
</linearGradient>
<linearGradient id="paint7_linear_452_124" x1="2.37746e-06" y1="71" x2="1094" y2="71" gradientUnits="userSpaceOnUse">
<stop stop-color="#58BABF"/>
<stop offset="1" stop-color="#7BA4C4"/>
</linearGradient>
<linearGradient id="paint8_linear_452_124" x1="2.37746e-06" y1="71" x2="1094" y2="71" gradientUnits="userSpaceOnUse">
<stop stop-color="#58BABF"/>
<stop offset="1" stop-color="#7BA4C4"/>
</linearGradient>
<linearGradient id="paint9_linear_452_124" x1="2.37746e-06" y1="71" x2="1094" y2="71" gradientUnits="userSpaceOnUse">
<stop stop-color="#58BABF"/>
<stop offset="1" stop-color="#7BA4C4"/>
</linearGradient>
<linearGradient id="paint10_linear_452_124" x1="2.37746e-06" y1="71" x2="1094" y2="71" gradientUnits="userSpaceOnUse">
<stop stop-color="#58BABF"/>
<stop offset="1" stop-color="#7BA4C4"/>
</linearGradient>
<linearGradient id="paint11_linear_452_124" x1="2.37746e-06" y1="71" x2="1094" y2="71" gradientUnits="userSpaceOnUse">
<stop stop-color="#58BABF"/>
<stop offset="1" stop-color="#7BA4C4"/>
</linearGradient>
<linearGradient id="paint12_linear_452_124" x1="2.37746e-06" y1="71" x2="1094" y2="71" gradientUnits="userSpaceOnUse">
<stop stop-color="#58BABF"/>
<stop offset="1" stop-color="#7BA4C4"/>
</linearGradient>
<linearGradient id="paint13_linear_452_124" x1="2.37746e-06" y1="71" x2="1094" y2="71" gradientUnits="userSpaceOnUse">
<stop stop-color="#58BABF"/>
<stop offset="1" stop-color="#7BA4C4"/>
</linearGradient>
</defs>
</svg>
