<svg width="1095" height="98" viewBox="0 0 1095 98" fill="none" xmlns="http://www.w3.org/2000/svg">
<mask id="path-1-inside-1_450_6" fill="white">
<path d="M24.96 78.528C9.216 78.528 0 73.536 0 64.896C0 55.008 12 48.288 32.544 46.368L51.456 44.64C53.568 44.448 54.816 43.68 54.816 42.72C54.816 40.32 49.344 38.496 40.992 38.496C28.992 38.496 15.552 42.336 6.144 48.384L0.192 36.576C9.792 30.048 25.344 25.824 40.992 25.824C62.784 25.824 77.184 32.736 77.184 44.928V76.992H57.504L54.432 66.24H54.336C49.44 73.824 38.592 78.528 24.96 78.528ZM33.024 65.088C45.888 65.088 54.432 60.96 54.432 54.912V54.72L34.08 56.544C26.688 57.12 22.752 58.56 22.752 61.152C22.752 63.648 26.304 65.088 33.024 65.088Z"/>
<path d="M116.493 78.624C100.749 78.624 90.765 69.792 90.861 55.488L90.957 27.456H113.517V53.088C113.517 60.96 118.413 65.664 126.861 65.664C136.461 65.664 142.317 60.096 142.317 50.688V27.456H164.973V76.992H145.389L142.989 64.992H142.893C138.285 73.248 128.877 78.624 116.493 78.624Z"/>
<path d="M215.733 78.528C201.525 78.528 186.261 75.36 177.909 70.656L183.861 59.136C190.581 63.264 203.061 66.336 214.293 66.336C225.045 66.336 229.845 64.8 229.845 62.496C229.845 60.48 226.293 59.424 219.477 58.944L207.189 57.984C190.485 56.832 181.941 52.8 181.941 43.776C181.941 31.392 196.053 25.824 215.541 25.824C226.005 25.824 236.373 28.032 245.109 32.352L239.733 42.816C233.589 39.648 224.181 37.248 215.253 37.248C207.285 37.248 201.141 38.496 201.141 40.992C201.141 42.912 204.117 43.68 210.069 44.16L222.357 45.216C240.501 46.56 249.621 50.784 249.621 60.672C249.621 73.056 235.125 78.528 215.733 78.528Z"/>
<path d="M298.54 78.528C282.412 78.528 272.525 71.232 272.525 59.328L272.428 41.28H258.605V27.456H272.428V14.208L295.085 10.176V27.456H325.325V41.28H295.085V54.24C295.085 60.192 298.157 63.264 305.069 63.264C311.789 63.264 316.781 60.864 322.157 55.968L326.957 68.736C319.277 75.648 310.732 78.528 298.54 78.528Z"/>
<path d="M382.11 25.824C393.15 25.824 400.734 34.368 401.502 47.616L380.766 51.648C380.382 44.256 377.118 39.552 372.414 39.552C365.982 39.552 362.142 45.504 362.142 54.912V76.992H339.39V27.456H358.302L361.374 38.88H361.47C365.118 30.816 373.182 25.824 382.11 25.824Z"/>
<path d="M434.329 78.528C418.585 78.528 409.369 73.536 409.369 64.896C409.369 55.008 421.369 48.288 441.913 46.368L460.825 44.64C462.937 44.448 464.185 43.68 464.185 42.72C464.185 40.32 458.713 38.496 450.361 38.496C438.361 38.496 424.921 42.336 415.513 48.384L409.561 36.576C419.161 30.048 434.713 25.824 450.361 25.824C472.153 25.824 486.553 32.736 486.553 44.928V76.992H466.873L463.801 66.24H463.705C458.809 73.824 447.961 78.528 434.329 78.528ZM442.393 65.088C455.257 65.088 463.801 60.96 463.801 54.912V54.72L443.449 56.544C436.057 57.12 432.121 58.56 432.121 61.152C432.121 63.648 435.673 65.088 442.393 65.088Z"/>
<path d="M501.094 76.992V5.376H523.846V76.992H501.094Z"/>
<path d="M577.354 78.528C553.354 78.528 537.611 68.16 537.611 52.224C537.611 36.288 553.354 25.824 577.354 25.824C601.45 25.824 617.195 36.288 617.195 52.224C617.195 68.16 601.45 78.528 577.354 78.528ZM577.354 65.28C587.722 65.28 594.443 60.096 594.443 52.224C594.443 44.352 587.722 39.168 577.354 39.168C566.986 39.168 560.266 44.352 560.266 52.224C560.266 60.096 566.986 65.28 577.354 65.28Z"/>
<path d="M630.829 97.152V27.456H650.413L653.389 40.224H653.485C657.325 31.488 667.981 25.824 680.461 25.824C698.125 25.824 709.645 36.288 709.645 52.224C709.645 68.16 698.125 78.528 680.461 78.528C668.077 78.528 657.517 72.96 653.677 64.32H653.581V97.152H630.829ZM669.805 63.456C680.173 63.456 686.893 59.04 686.893 52.224C686.893 45.408 680.173 40.896 669.805 40.896C659.533 40.896 652.717 45.408 652.717 52.224C652.717 59.04 659.533 63.456 669.805 63.456Z"/>
<path d="M735.065 22.176C727.769 22.176 722.489 17.568 722.489 11.04C722.489 4.512 727.769 0 735.065 0C742.361 0 747.641 4.512 747.641 11.04C747.641 17.568 742.361 22.176 735.065 22.176ZM723.737 76.992V27.456H746.393V76.992H723.737Z"/>
<path d="M798.925 78.528C782.797 78.528 772.909 71.232 772.909 59.328L772.813 41.28H758.99V27.456H772.813V14.208L795.469 10.176V27.456H825.709V41.28H795.469V54.24C795.469 60.192 798.541 63.264 805.453 63.264C812.173 63.264 817.166 60.864 822.542 55.968L827.341 68.736C819.661 75.648 811.117 78.528 798.925 78.528Z"/>
<path d="M880.959 78.528C855.423 78.528 838.143 68.256 838.143 52.128C838.143 36.672 854.175 25.824 877.119 25.824C899.679 25.824 914.559 36.288 914.559 52.224C914.559 53.664 914.367 55.776 913.887 57.408H862.047C864.639 63.168 873.279 65.472 882.591 65.472C892.383 65.472 902.271 63.36 907.359 60.48L913.599 71.232C906.879 75.552 894.207 78.528 880.959 78.528ZM861.663 47.712H891.711C891.423 42.048 884.895 38.208 876.927 38.208C868.767 38.208 862.527 42.144 861.663 47.712Z"/>
<path d="M967.801 78.528C943.321 78.528 927.289 68.16 927.385 52.224C927.385 36.288 942.745 25.824 965.785 25.824C984.985 25.824 999.097 33.504 1001.69 45.216L980.569 48.672C979.321 43.2 974.233 39.744 966.745 39.744C956.569 39.744 950.041 44.448 950.041 52.224C950.041 59.904 956.857 64.704 968.089 64.704C977.785 64.704 984.793 60.288 986.329 53.088L1007.35 56.352C1004.57 69.696 988.921 78.528 967.801 78.528Z"/>
<path d="M1020.04 76.992V5.376H1042.79V39.456H1042.89C1047.59 31.2 1056.14 25.824 1068.52 25.824C1084.27 25.824 1094.25 34.656 1094.15 48.96L1094.06 76.992H1071.5V51.36C1071.5 43.488 1066.6 38.784 1058.15 38.784C1048.55 38.784 1042.7 44.352 1042.7 53.76V76.992V87.072C1042.13 94.8637 1039.46 96.8903 1031.37 97.152H1020.04H1013.58H758.99V91.9922H1013.58C1018.59 91.7261 1020.25 90.3482 1020.04 84.4921V76.992Z"/>
</mask>
<path d="M24.96 78.528C9.216 78.528 0 73.536 0 64.896C0 55.008 12 48.288 32.544 46.368L51.456 44.64C53.568 44.448 54.816 43.68 54.816 42.72C54.816 40.32 49.344 38.496 40.992 38.496C28.992 38.496 15.552 42.336 6.144 48.384L0.192 36.576C9.792 30.048 25.344 25.824 40.992 25.824C62.784 25.824 77.184 32.736 77.184 44.928V76.992H57.504L54.432 66.24H54.336C49.44 73.824 38.592 78.528 24.96 78.528ZM33.024 65.088C45.888 65.088 54.432 60.96 54.432 54.912V54.72L34.08 56.544C26.688 57.12 22.752 58.56 22.752 61.152C22.752 63.648 26.304 65.088 33.024 65.088Z" fill="url(#paint0_linear_450_6)"/>
<path d="M116.493 78.624C100.749 78.624 90.765 69.792 90.861 55.488L90.957 27.456H113.517V53.088C113.517 60.96 118.413 65.664 126.861 65.664C136.461 65.664 142.317 60.096 142.317 50.688V27.456H164.973V76.992H145.389L142.989 64.992H142.893C138.285 73.248 128.877 78.624 116.493 78.624Z" fill="url(#paint1_linear_450_6)"/>
<path d="M215.733 78.528C201.525 78.528 186.261 75.36 177.909 70.656L183.861 59.136C190.581 63.264 203.061 66.336 214.293 66.336C225.045 66.336 229.845 64.8 229.845 62.496C229.845 60.48 226.293 59.424 219.477 58.944L207.189 57.984C190.485 56.832 181.941 52.8 181.941 43.776C181.941 31.392 196.053 25.824 215.541 25.824C226.005 25.824 236.373 28.032 245.109 32.352L239.733 42.816C233.589 39.648 224.181 37.248 215.253 37.248C207.285 37.248 201.141 38.496 201.141 40.992C201.141 42.912 204.117 43.68 210.069 44.16L222.357 45.216C240.501 46.56 249.621 50.784 249.621 60.672C249.621 73.056 235.125 78.528 215.733 78.528Z" fill="url(#paint2_linear_450_6)"/>
<path d="M298.54 78.528C282.412 78.528 272.525 71.232 272.525 59.328L272.428 41.28H258.605V27.456H272.428V14.208L295.085 10.176V27.456H325.325V41.28H295.085V54.24C295.085 60.192 298.157 63.264 305.069 63.264C311.789 63.264 316.781 60.864 322.157 55.968L326.957 68.736C319.277 75.648 310.732 78.528 298.54 78.528Z" fill="url(#paint3_linear_450_6)"/>
<path d="M382.11 25.824C393.15 25.824 400.734 34.368 401.502 47.616L380.766 51.648C380.382 44.256 377.118 39.552 372.414 39.552C365.982 39.552 362.142 45.504 362.142 54.912V76.992H339.39V27.456H358.302L361.374 38.88H361.47C365.118 30.816 373.182 25.824 382.11 25.824Z" fill="url(#paint4_linear_450_6)"/>
<path d="M434.329 78.528C418.585 78.528 409.369 73.536 409.369 64.896C409.369 55.008 421.369 48.288 441.913 46.368L460.825 44.64C462.937 44.448 464.185 43.68 464.185 42.72C464.185 40.32 458.713 38.496 450.361 38.496C438.361 38.496 424.921 42.336 415.513 48.384L409.561 36.576C419.161 30.048 434.713 25.824 450.361 25.824C472.153 25.824 486.553 32.736 486.553 44.928V76.992H466.873L463.801 66.24H463.705C458.809 73.824 447.961 78.528 434.329 78.528ZM442.393 65.088C455.257 65.088 463.801 60.96 463.801 54.912V54.72L443.449 56.544C436.057 57.12 432.121 58.56 432.121 61.152C432.121 63.648 435.673 65.088 442.393 65.088Z" fill="url(#paint5_linear_450_6)"/>
<path d="M501.094 76.992V5.376H523.846V76.992H501.094Z" fill="url(#paint6_linear_450_6)"/>
<path d="M577.354 78.528C553.354 78.528 537.611 68.16 537.611 52.224C537.611 36.288 553.354 25.824 577.354 25.824C601.45 25.824 617.195 36.288 617.195 52.224C617.195 68.16 601.45 78.528 577.354 78.528ZM577.354 65.28C587.722 65.28 594.443 60.096 594.443 52.224C594.443 44.352 587.722 39.168 577.354 39.168C566.986 39.168 560.266 44.352 560.266 52.224C560.266 60.096 566.986 65.28 577.354 65.28Z" fill="url(#paint7_linear_450_6)"/>
<path d="M630.829 97.152V27.456H650.413L653.389 40.224H653.485C657.325 31.488 667.981 25.824 680.461 25.824C698.125 25.824 709.645 36.288 709.645 52.224C709.645 68.16 698.125 78.528 680.461 78.528C668.077 78.528 657.517 72.96 653.677 64.32H653.581V97.152H630.829ZM669.805 63.456C680.173 63.456 686.893 59.04 686.893 52.224C686.893 45.408 680.173 40.896 669.805 40.896C659.533 40.896 652.717 45.408 652.717 52.224C652.717 59.04 659.533 63.456 669.805 63.456Z" fill="url(#paint8_linear_450_6)"/>
<path d="M735.065 22.176C727.769 22.176 722.489 17.568 722.489 11.04C722.489 4.512 727.769 0 735.065 0C742.361 0 747.641 4.512 747.641 11.04C747.641 17.568 742.361 22.176 735.065 22.176ZM723.737 76.992V27.456H746.393V76.992H723.737Z" fill="url(#paint9_linear_450_6)"/>
<path d="M798.925 78.528C782.797 78.528 772.909 71.232 772.909 59.328L772.813 41.28H758.99V27.456H772.813V14.208L795.469 10.176V27.456H825.709V41.28H795.469V54.24C795.469 60.192 798.541 63.264 805.453 63.264C812.173 63.264 817.166 60.864 822.542 55.968L827.341 68.736C819.661 75.648 811.117 78.528 798.925 78.528Z" fill="url(#paint10_linear_450_6)"/>
<path d="M880.959 78.528C855.423 78.528 838.143 68.256 838.143 52.128C838.143 36.672 854.175 25.824 877.119 25.824C899.679 25.824 914.559 36.288 914.559 52.224C914.559 53.664 914.367 55.776 913.887 57.408H862.047C864.639 63.168 873.279 65.472 882.591 65.472C892.383 65.472 902.271 63.36 907.359 60.48L913.599 71.232C906.879 75.552 894.207 78.528 880.959 78.528ZM861.663 47.712H891.711C891.423 42.048 884.895 38.208 876.927 38.208C868.767 38.208 862.527 42.144 861.663 47.712Z" fill="url(#paint11_linear_450_6)"/>
<path d="M967.801 78.528C943.321 78.528 927.289 68.16 927.385 52.224C927.385 36.288 942.745 25.824 965.785 25.824C984.985 25.824 999.097 33.504 1001.69 45.216L980.569 48.672C979.321 43.2 974.233 39.744 966.745 39.744C956.569 39.744 950.041 44.448 950.041 52.224C950.041 59.904 956.857 64.704 968.089 64.704C977.785 64.704 984.793 60.288 986.329 53.088L1007.35 56.352C1004.57 69.696 988.921 78.528 967.801 78.528Z" fill="url(#paint12_linear_450_6)"/>
<path d="M1020.04 76.992V5.376H1042.79V39.456H1042.89C1047.59 31.2 1056.14 25.824 1068.52 25.824C1084.27 25.824 1094.25 34.656 1094.15 48.96L1094.06 76.992H1071.5V51.36C1071.5 43.488 1066.6 38.784 1058.15 38.784C1048.55 38.784 1042.7 44.352 1042.7 53.76V76.992V87.072C1042.13 94.8637 1039.46 96.8903 1031.37 97.152H1020.04H1013.58H758.99V91.9922H1013.58C1018.59 91.7261 1020.25 90.3482 1020.04 84.4921V76.992Z" fill="url(#paint13_linear_450_6)"/>
<path d="M24.96 78.528C9.216 78.528 0 73.536 0 64.896C0 55.008 12 48.288 32.544 46.368L51.456 44.64C53.568 44.448 54.816 43.68 54.816 42.72C54.816 40.32 49.344 38.496 40.992 38.496C28.992 38.496 15.552 42.336 6.144 48.384L0.192 36.576C9.792 30.048 25.344 25.824 40.992 25.824C62.784 25.824 77.184 32.736 77.184 44.928V76.992H57.504L54.432 66.24H54.336C49.44 73.824 38.592 78.528 24.96 78.528ZM33.024 65.088C45.888 65.088 54.432 60.96 54.432 54.912V54.72L34.08 56.544C26.688 57.12 22.752 58.56 22.752 61.152C22.752 63.648 26.304 65.088 33.024 65.088Z" stroke="#121717" mask="url(#path-1-inside-1_450_6)"/>
<path d="M116.493 78.624C100.749 78.624 90.765 69.792 90.861 55.488L90.957 27.456H113.517V53.088C113.517 60.96 118.413 65.664 126.861 65.664C136.461 65.664 142.317 60.096 142.317 50.688V27.456H164.973V76.992H145.389L142.989 64.992H142.893C138.285 73.248 128.877 78.624 116.493 78.624Z" stroke="#121717" mask="url(#path-1-inside-1_450_6)"/>
<path d="M215.733 78.528C201.525 78.528 186.261 75.36 177.909 70.656L183.861 59.136C190.581 63.264 203.061 66.336 214.293 66.336C225.045 66.336 229.845 64.8 229.845 62.496C229.845 60.48 226.293 59.424 219.477 58.944L207.189 57.984C190.485 56.832 181.941 52.8 181.941 43.776C181.941 31.392 196.053 25.824 215.541 25.824C226.005 25.824 236.373 28.032 245.109 32.352L239.733 42.816C233.589 39.648 224.181 37.248 215.253 37.248C207.285 37.248 201.141 38.496 201.141 40.992C201.141 42.912 204.117 43.68 210.069 44.16L222.357 45.216C240.501 46.56 249.621 50.784 249.621 60.672C249.621 73.056 235.125 78.528 215.733 78.528Z" stroke="#121717" mask="url(#path-1-inside-1_450_6)"/>
<path d="M298.54 78.528C282.412 78.528 272.525 71.232 272.525 59.328L272.428 41.28H258.605V27.456H272.428V14.208L295.085 10.176V27.456H325.325V41.28H295.085V54.24C295.085 60.192 298.157 63.264 305.069 63.264C311.789 63.264 316.781 60.864 322.157 55.968L326.957 68.736C319.277 75.648 310.732 78.528 298.54 78.528Z" stroke="#121717" mask="url(#path-1-inside-1_450_6)"/>
<path d="M382.11 25.824C393.15 25.824 400.734 34.368 401.502 47.616L380.766 51.648C380.382 44.256 377.118 39.552 372.414 39.552C365.982 39.552 362.142 45.504 362.142 54.912V76.992H339.39V27.456H358.302L361.374 38.88H361.47C365.118 30.816 373.182 25.824 382.11 25.824Z" stroke="#121717" mask="url(#path-1-inside-1_450_6)"/>
<path d="M434.329 78.528C418.585 78.528 409.369 73.536 409.369 64.896C409.369 55.008 421.369 48.288 441.913 46.368L460.825 44.64C462.937 44.448 464.185 43.68 464.185 42.72C464.185 40.32 458.713 38.496 450.361 38.496C438.361 38.496 424.921 42.336 415.513 48.384L409.561 36.576C419.161 30.048 434.713 25.824 450.361 25.824C472.153 25.824 486.553 32.736 486.553 44.928V76.992H466.873L463.801 66.24H463.705C458.809 73.824 447.961 78.528 434.329 78.528ZM442.393 65.088C455.257 65.088 463.801 60.96 463.801 54.912V54.72L443.449 56.544C436.057 57.12 432.121 58.56 432.121 61.152C432.121 63.648 435.673 65.088 442.393 65.088Z" stroke="#121717" mask="url(#path-1-inside-1_450_6)"/>
<path d="M501.094 76.992V5.376H523.846V76.992H501.094Z" stroke="#121717" mask="url(#path-1-inside-1_450_6)"/>
<path d="M577.354 78.528C553.354 78.528 537.611 68.16 537.611 52.224C537.611 36.288 553.354 25.824 577.354 25.824C601.45 25.824 617.195 36.288 617.195 52.224C617.195 68.16 601.45 78.528 577.354 78.528ZM577.354 65.28C587.722 65.28 594.443 60.096 594.443 52.224C594.443 44.352 587.722 39.168 577.354 39.168C566.986 39.168 560.266 44.352 560.266 52.224C560.266 60.096 566.986 65.28 577.354 65.28Z" stroke="#121717" mask="url(#path-1-inside-1_450_6)"/>
<path d="M630.829 97.152V27.456H650.413L653.389 40.224H653.485C657.325 31.488 667.981 25.824 680.461 25.824C698.125 25.824 709.645 36.288 709.645 52.224C709.645 68.16 698.125 78.528 680.461 78.528C668.077 78.528 657.517 72.96 653.677 64.32H653.581V97.152H630.829ZM669.805 63.456C680.173 63.456 686.893 59.04 686.893 52.224C686.893 45.408 680.173 40.896 669.805 40.896C659.533 40.896 652.717 45.408 652.717 52.224C652.717 59.04 659.533 63.456 669.805 63.456Z" stroke="#121717" mask="url(#path-1-inside-1_450_6)"/>
<path d="M735.065 22.176C727.769 22.176 722.489 17.568 722.489 11.04C722.489 4.512 727.769 0 735.065 0C742.361 0 747.641 4.512 747.641 11.04C747.641 17.568 742.361 22.176 735.065 22.176ZM723.737 76.992V27.456H746.393V76.992H723.737Z" stroke="#121717" mask="url(#path-1-inside-1_450_6)"/>
<path d="M798.925 78.528C782.797 78.528 772.909 71.232 772.909 59.328L772.813 41.28H758.99V27.456H772.813V14.208L795.469 10.176V27.456H825.709V41.28H795.469V54.24C795.469 60.192 798.541 63.264 805.453 63.264C812.173 63.264 817.166 60.864 822.542 55.968L827.341 68.736C819.661 75.648 811.117 78.528 798.925 78.528Z" stroke="#121717" mask="url(#path-1-inside-1_450_6)"/>
<path d="M880.959 78.528C855.423 78.528 838.143 68.256 838.143 52.128C838.143 36.672 854.175 25.824 877.119 25.824C899.679 25.824 914.559 36.288 914.559 52.224C914.559 53.664 914.367 55.776 913.887 57.408H862.047C864.639 63.168 873.279 65.472 882.591 65.472C892.383 65.472 902.271 63.36 907.359 60.48L913.599 71.232C906.879 75.552 894.207 78.528 880.959 78.528ZM861.663 47.712H891.711C891.423 42.048 884.895 38.208 876.927 38.208C868.767 38.208 862.527 42.144 861.663 47.712Z" stroke="#121717" mask="url(#path-1-inside-1_450_6)"/>
<path d="M967.801 78.528C943.321 78.528 927.289 68.16 927.385 52.224C927.385 36.288 942.745 25.824 965.785 25.824C984.985 25.824 999.097 33.504 1001.69 45.216L980.569 48.672C979.321 43.2 974.233 39.744 966.745 39.744C956.569 39.744 950.041 44.448 950.041 52.224C950.041 59.904 956.857 64.704 968.089 64.704C977.785 64.704 984.793 60.288 986.329 53.088L1007.35 56.352C1004.57 69.696 988.921 78.528 967.801 78.528Z" stroke="#121717" mask="url(#path-1-inside-1_450_6)"/>
<path d="M1020.04 76.992V5.376H1042.79V39.456H1042.89C1047.59 31.2 1056.14 25.824 1068.52 25.824C1084.27 25.824 1094.25 34.656 1094.15 48.96L1094.06 76.992H1071.5V51.36C1071.5 43.488 1066.6 38.784 1058.15 38.784C1048.55 38.784 1042.7 44.352 1042.7 53.76V76.992V87.072C1042.13 94.8637 1039.46 96.8903 1031.37 97.152H1020.04H1013.58H758.99V91.9922H1013.58C1018.59 91.7261 1020.25 90.3482 1020.04 84.4921V76.992Z" stroke="#121717" mask="url(#path-1-inside-1_450_6)"/>
<defs>
<linearGradient id="paint0_linear_450_6" x1="-8.42187" y1="44.5001" x2="1096.08" y2="50.0001" gradientUnits="userSpaceOnUse">
<stop stop-color="#55BBBE"/>
<stop offset="1" stop-color="#406170"/>
</linearGradient>
<linearGradient id="paint1_linear_450_6" x1="-8.42187" y1="44.5001" x2="1096.08" y2="50.0001" gradientUnits="userSpaceOnUse">
<stop stop-color="#55BBBE"/>
<stop offset="1" stop-color="#406170"/>
</linearGradient>
<linearGradient id="paint2_linear_450_6" x1="-8.42187" y1="44.5001" x2="1096.08" y2="50.0001" gradientUnits="userSpaceOnUse">
<stop stop-color="#55BBBE"/>
<stop offset="1" stop-color="#406170"/>
</linearGradient>
<linearGradient id="paint3_linear_450_6" x1="-8.42187" y1="44.5001" x2="1096.08" y2="50.0001" gradientUnits="userSpaceOnUse">
<stop stop-color="#55BBBE"/>
<stop offset="1" stop-color="#406170"/>
</linearGradient>
<linearGradient id="paint4_linear_450_6" x1="-8.42187" y1="44.5001" x2="1096.08" y2="50.0001" gradientUnits="userSpaceOnUse">
<stop stop-color="#55BBBE"/>
<stop offset="1" stop-color="#406170"/>
</linearGradient>
<linearGradient id="paint5_linear_450_6" x1="-8.42187" y1="44.5001" x2="1096.08" y2="50.0001" gradientUnits="userSpaceOnUse">
<stop stop-color="#55BBBE"/>
<stop offset="1" stop-color="#406170"/>
</linearGradient>
<linearGradient id="paint6_linear_450_6" x1="-8.42187" y1="44.5001" x2="1096.08" y2="50.0001" gradientUnits="userSpaceOnUse">
<stop stop-color="#55BBBE"/>
<stop offset="1" stop-color="#406170"/>
</linearGradient>
<linearGradient id="paint7_linear_450_6" x1="-8.42187" y1="44.5001" x2="1096.08" y2="50.0001" gradientUnits="userSpaceOnUse">
<stop stop-color="#55BBBE"/>
<stop offset="1" stop-color="#406170"/>
</linearGradient>
<linearGradient id="paint8_linear_450_6" x1="-8.42187" y1="44.5001" x2="1096.08" y2="50.0001" gradientUnits="userSpaceOnUse">
<stop stop-color="#55BBBE"/>
<stop offset="1" stop-color="#406170"/>
</linearGradient>
<linearGradient id="paint9_linear_450_6" x1="-8.42187" y1="44.5001" x2="1096.08" y2="50.0001" gradientUnits="userSpaceOnUse">
<stop stop-color="#55BBBE"/>
<stop offset="1" stop-color="#406170"/>
</linearGradient>
<linearGradient id="paint10_linear_450_6" x1="-8.42187" y1="44.5001" x2="1096.08" y2="50.0001" gradientUnits="userSpaceOnUse">
<stop stop-color="#55BBBE"/>
<stop offset="1" stop-color="#406170"/>
</linearGradient>
<linearGradient id="paint11_linear_450_6" x1="-8.42187" y1="44.5001" x2="1096.08" y2="50.0001" gradientUnits="userSpaceOnUse">
<stop stop-color="#55BBBE"/>
<stop offset="1" stop-color="#406170"/>
</linearGradient>
<linearGradient id="paint12_linear_450_6" x1="-8.42187" y1="44.5001" x2="1096.08" y2="50.0001" gradientUnits="userSpaceOnUse">
<stop stop-color="#55BBBE"/>
<stop offset="1" stop-color="#406170"/>
</linearGradient>
<linearGradient id="paint13_linear_450_6" x1="-8.42187" y1="44.5001" x2="1096.08" y2="50.0001" gradientUnits="userSpaceOnUse">
<stop stop-color="#55BBBE"/>
<stop offset="1" stop-color="#406170"/>
</linearGradient>
</defs>
</svg>
