<svg width="100%" height="100%" viewBox="0 0 1096 98" fill="none" xmlns="http://www.w3.org/2000/svg">
<mask id="path-1-inside-1_413_370" fill="white">
<path d="M25.8819 78.528C10.1379 78.528 0.921875 73.536 0.921875 64.896C0.921875 55.008 12.9219 48.288 33.4659 46.368L52.3779 44.64C54.4899 44.448 55.7379 43.68 55.7379 42.72C55.7379 40.32 50.2659 38.496 41.9139 38.496C29.9139 38.496 16.4739 42.336 7.06588 48.384L1.11388 36.576C10.7139 30.048 26.2659 25.824 41.9139 25.824C63.7059 25.824 78.1059 32.736 78.1059 44.928V76.992H58.4259L55.3539 66.24H55.2579C50.3619 73.824 39.5139 78.528 25.8819 78.528ZM33.9459 65.088C46.8099 65.088 55.3539 60.96 55.3539 54.912V54.72L35.0019 56.544C27.6099 57.12 23.6739 58.56 23.6739 61.152C23.6739 63.648 27.2259 65.088 33.9459 65.088Z"/>
<path d="M117.415 78.624C101.671 78.624 91.6869 69.792 91.7829 55.488L91.8789 27.456H114.439V53.088C114.439 60.96 119.335 65.664 127.783 65.664C137.383 65.664 143.239 60.096 143.239 50.688V27.456H165.895V76.992H146.311L143.911 64.992H143.815C139.207 73.248 129.799 78.624 117.415 78.624Z"/>
<path d="M216.655 78.528C202.447 78.528 187.183 75.36 178.831 70.656L184.783 59.136C191.503 63.264 203.983 66.336 215.215 66.336C225.967 66.336 230.767 64.8 230.767 62.496C230.767 60.48 227.215 59.424 220.399 58.944L208.111 57.984C191.407 56.832 182.863 52.8 182.863 43.776C182.863 31.392 196.975 25.824 216.463 25.824C226.927 25.824 237.295 28.032 246.031 32.352L240.655 42.816C234.511 39.648 225.103 37.248 216.175 37.248C208.207 37.248 202.063 38.496 202.063 40.992C202.063 42.912 205.039 43.68 210.991 44.16L223.279 45.216C241.423 46.56 250.543 50.784 250.543 60.672C250.543 73.056 236.047 78.528 216.655 78.528Z"/>
<path d="M299.462 78.528C283.334 78.528 273.446 71.232 273.446 59.328L273.35 41.28H259.526V27.456H273.35V14.208L296.006 10.176V27.456H326.246V41.28H296.006V54.24C296.006 60.192 299.078 63.264 305.99 63.264C312.71 63.264 317.702 60.864 323.078 55.968L327.878 68.736C320.198 75.648 311.654 78.528 299.462 78.528Z"/>
<path d="M383.032 25.824C394.072 25.824 401.656 34.368 402.424 47.616L381.688 51.648C381.304 44.256 378.04 39.552 373.336 39.552C366.904 39.552 363.064 45.504 363.064 54.912V76.992H340.312V27.456H359.224L362.296 38.88H362.392C366.04 30.816 374.104 25.824 383.032 25.824Z"/>
<path d="M435.251 78.528C419.507 78.528 410.291 73.536 410.291 64.896C410.291 55.008 422.291 48.288 442.835 46.368L461.747 44.64C463.859 44.448 465.107 43.68 465.107 42.72C465.107 40.32 459.635 38.496 451.283 38.496C439.283 38.496 425.843 42.336 416.435 48.384L410.483 36.576C420.083 30.048 435.635 25.824 451.283 25.824C473.075 25.824 487.475 32.736 487.475 44.928V76.992H467.795L464.723 66.24H464.627C459.731 73.824 448.883 78.528 435.251 78.528ZM443.315 65.088C456.179 65.088 464.723 60.96 464.723 54.912V54.72L444.371 56.544C436.979 57.12 433.043 58.56 433.043 61.152C433.043 63.648 436.595 65.088 443.315 65.088Z"/>
<path d="M502.016 76.992V5.376H524.768V76.992H502.016Z"/>
<path d="M578.276 78.528C554.276 78.528 538.532 68.16 538.532 52.224C538.532 36.288 554.276 25.824 578.276 25.824C602.372 25.824 618.116 36.288 618.116 52.224C618.116 68.16 602.372 78.528 578.276 78.528ZM578.276 65.28C588.644 65.28 595.364 60.096 595.364 52.224C595.364 44.352 588.644 39.168 578.276 39.168C567.908 39.168 561.188 44.352 561.188 52.224C561.188 60.096 567.908 65.28 578.276 65.28Z"/>
<path d="M631.751 97.152V27.456H651.335L654.311 40.224H654.407C658.247 31.488 668.903 25.824 681.383 25.824C699.047 25.824 710.567 36.288 710.567 52.224C710.567 68.16 699.047 78.528 681.383 78.528C668.999 78.528 658.439 72.96 654.599 64.32H654.503V97.152H631.751ZM670.727 63.456C681.095 63.456 687.815 59.04 687.815 52.224C687.815 45.408 681.095 40.896 670.727 40.896C660.455 40.896 653.639 45.408 653.639 52.224C653.639 59.04 660.455 63.456 670.727 63.456Z"/>
<path d="M735.986 22.176C728.69 22.176 723.41 17.568 723.41 11.04C723.41 4.512 728.69 0 735.986 0C743.282 0 748.562 4.512 748.562 11.04C748.562 17.568 743.282 22.176 735.986 22.176ZM724.658 76.992V27.456H747.314V76.992H724.658Z"/>
<path d="M799.847 78.528C783.719 78.528 773.831 71.232 773.831 59.328L773.735 41.28H759.911V27.456H773.735V14.208L796.391 10.176V27.456H826.631V41.28H796.391V54.24C796.391 60.192 799.463 63.264 806.375 63.264C813.095 63.264 818.087 60.864 823.463 55.968L828.263 68.736C820.583 75.648 812.039 78.528 799.847 78.528Z"/>
<path d="M881.881 78.528C856.345 78.528 839.065 68.256 839.065 52.128C839.065 36.672 855.097 25.824 878.041 25.824C900.601 25.824 915.481 36.288 915.481 52.224C915.481 53.664 915.289 55.776 914.809 57.408H862.969C865.561 63.168 874.201 65.472 883.513 65.472C893.305 65.472 903.193 63.36 908.281 60.48L914.521 71.232C907.801 75.552 895.129 78.528 881.881 78.528ZM862.585 47.712H892.633C892.345 42.048 885.817 38.208 877.849 38.208C869.689 38.208 863.449 42.144 862.585 47.712Z"/>
<path d="M968.723 78.528C944.243 78.528 928.211 68.16 928.307 52.224C928.307 36.288 943.667 25.824 966.707 25.824C985.907 25.824 1000.02 33.504 1002.61 45.216L981.491 48.672C980.243 43.2 975.155 39.744 967.667 39.744C957.491 39.744 950.963 44.448 950.963 52.224C950.963 59.904 957.779 64.704 969.011 64.704C978.707 64.704 985.715 60.288 987.251 53.088L1008.28 56.352C1005.49 69.696 989.843 78.528 968.723 78.528Z"/>
<path d="M1020.96 76.992V5.376H1043.72V39.456H1043.81C1048.52 31.2 1057.06 25.824 1069.44 25.824C1085.19 25.824 1095.17 34.656 1095.08 48.96L1094.98 76.992H1072.42V51.36C1072.42 43.488 1067.52 38.784 1059.08 38.784C1049.48 38.784 1043.62 44.352 1043.62 53.76V76.992V87.072C1043.05 94.8637 1040.38 96.8903 1032.29 97.152H1020.96H1014.5H759.911V91.9922H1014.5C1019.51 91.7261 1021.18 90.3482 1020.96 84.4921V76.992Z"/>
</mask>
<path d="M25.8819 78.528C10.1379 78.528 0.921875 73.536 0.921875 64.896C0.921875 55.008 12.9219 48.288 33.4659 46.368L52.3779 44.64C54.4899 44.448 55.7379 43.68 55.7379 42.72C55.7379 40.32 50.2659 38.496 41.9139 38.496C29.9139 38.496 16.4739 42.336 7.06588 48.384L1.11388 36.576C10.7139 30.048 26.2659 25.824 41.9139 25.824C63.7059 25.824 78.1059 32.736 78.1059 44.928V76.992H58.4259L55.3539 66.24H55.2579C50.3619 73.824 39.5139 78.528 25.8819 78.528ZM33.9459 65.088C46.8099 65.088 55.3539 60.96 55.3539 54.912V54.72L35.0019 56.544C27.6099 57.12 23.6739 58.56 23.6739 61.152C23.6739 63.648 27.2259 65.088 33.9459 65.088Z" fill="url(#paint0_linear_413_370)"/>
<path d="M117.415 78.624C101.671 78.624 91.6869 69.792 91.7829 55.488L91.8789 27.456H114.439V53.088C114.439 60.96 119.335 65.664 127.783 65.664C137.383 65.664 143.239 60.096 143.239 50.688V27.456H165.895V76.992H146.311L143.911 64.992H143.815C139.207 73.248 129.799 78.624 117.415 78.624Z" fill="url(#paint1_linear_413_370)"/>
<path d="M216.655 78.528C202.447 78.528 187.183 75.36 178.831 70.656L184.783 59.136C191.503 63.264 203.983 66.336 215.215 66.336C225.967 66.336 230.767 64.8 230.767 62.496C230.767 60.48 227.215 59.424 220.399 58.944L208.111 57.984C191.407 56.832 182.863 52.8 182.863 43.776C182.863 31.392 196.975 25.824 216.463 25.824C226.927 25.824 237.295 28.032 246.031 32.352L240.655 42.816C234.511 39.648 225.103 37.248 216.175 37.248C208.207 37.248 202.063 38.496 202.063 40.992C202.063 42.912 205.039 43.68 210.991 44.16L223.279 45.216C241.423 46.56 250.543 50.784 250.543 60.672C250.543 73.056 236.047 78.528 216.655 78.528Z" fill="url(#paint2_linear_413_370)"/>
<path d="M299.462 78.528C283.334 78.528 273.446 71.232 273.446 59.328L273.35 41.28H259.526V27.456H273.35V14.208L296.006 10.176V27.456H326.246V41.28H296.006V54.24C296.006 60.192 299.078 63.264 305.99 63.264C312.71 63.264 317.702 60.864 323.078 55.968L327.878 68.736C320.198 75.648 311.654 78.528 299.462 78.528Z" fill="url(#paint3_linear_413_370)"/>
<path d="M383.032 25.824C394.072 25.824 401.656 34.368 402.424 47.616L381.688 51.648C381.304 44.256 378.04 39.552 373.336 39.552C366.904 39.552 363.064 45.504 363.064 54.912V76.992H340.312V27.456H359.224L362.296 38.88H362.392C366.04 30.816 374.104 25.824 383.032 25.824Z" fill="url(#paint4_linear_413_370)"/>
<path d="M435.251 78.528C419.507 78.528 410.291 73.536 410.291 64.896C410.291 55.008 422.291 48.288 442.835 46.368L461.747 44.64C463.859 44.448 465.107 43.68 465.107 42.72C465.107 40.32 459.635 38.496 451.283 38.496C439.283 38.496 425.843 42.336 416.435 48.384L410.483 36.576C420.083 30.048 435.635 25.824 451.283 25.824C473.075 25.824 487.475 32.736 487.475 44.928V76.992H467.795L464.723 66.24H464.627C459.731 73.824 448.883 78.528 435.251 78.528ZM443.315 65.088C456.179 65.088 464.723 60.96 464.723 54.912V54.72L444.371 56.544C436.979 57.12 433.043 58.56 433.043 61.152C433.043 63.648 436.595 65.088 443.315 65.088Z" fill="url(#paint5_linear_413_370)"/>
<path d="M502.016 76.992V5.376H524.768V76.992H502.016Z" fill="url(#paint6_linear_413_370)"/>
<path d="M578.276 78.528C554.276 78.528 538.532 68.16 538.532 52.224C538.532 36.288 554.276 25.824 578.276 25.824C602.372 25.824 618.116 36.288 618.116 52.224C618.116 68.16 602.372 78.528 578.276 78.528ZM578.276 65.28C588.644 65.28 595.364 60.096 595.364 52.224C595.364 44.352 588.644 39.168 578.276 39.168C567.908 39.168 561.188 44.352 561.188 52.224C561.188 60.096 567.908 65.28 578.276 65.28Z" fill="url(#paint7_linear_413_370)"/>
<path d="M631.751 97.152V27.456H651.335L654.311 40.224H654.407C658.247 31.488 668.903 25.824 681.383 25.824C699.047 25.824 710.567 36.288 710.567 52.224C710.567 68.16 699.047 78.528 681.383 78.528C668.999 78.528 658.439 72.96 654.599 64.32H654.503V97.152H631.751ZM670.727 63.456C681.095 63.456 687.815 59.04 687.815 52.224C687.815 45.408 681.095 40.896 670.727 40.896C660.455 40.896 653.639 45.408 653.639 52.224C653.639 59.04 660.455 63.456 670.727 63.456Z" fill="url(#paint8_linear_413_370)"/>
<path d="M735.986 22.176C728.69 22.176 723.41 17.568 723.41 11.04C723.41 4.512 728.69 0 735.986 0C743.282 0 748.562 4.512 748.562 11.04C748.562 17.568 743.282 22.176 735.986 22.176ZM724.658 76.992V27.456H747.314V76.992H724.658Z" fill="url(#paint9_linear_413_370)"/>
<path d="M799.847 78.528C783.719 78.528 773.831 71.232 773.831 59.328L773.735 41.28H759.911V27.456H773.735V14.208L796.391 10.176V27.456H826.631V41.28H796.391V54.24C796.391 60.192 799.463 63.264 806.375 63.264C813.095 63.264 818.087 60.864 823.463 55.968L828.263 68.736C820.583 75.648 812.039 78.528 799.847 78.528Z" fill="url(#paint10_linear_413_370)"/>
<path d="M881.881 78.528C856.345 78.528 839.065 68.256 839.065 52.128C839.065 36.672 855.097 25.824 878.041 25.824C900.601 25.824 915.481 36.288 915.481 52.224C915.481 53.664 915.289 55.776 914.809 57.408H862.969C865.561 63.168 874.201 65.472 883.513 65.472C893.305 65.472 903.193 63.36 908.281 60.48L914.521 71.232C907.801 75.552 895.129 78.528 881.881 78.528ZM862.585 47.712H892.633C892.345 42.048 885.817 38.208 877.849 38.208C869.689 38.208 863.449 42.144 862.585 47.712Z" fill="url(#paint11_linear_413_370)"/>
<path d="M968.723 78.528C944.243 78.528 928.211 68.16 928.307 52.224C928.307 36.288 943.667 25.824 966.707 25.824C985.907 25.824 1000.02 33.504 1002.61 45.216L981.491 48.672C980.243 43.2 975.155 39.744 967.667 39.744C957.491 39.744 950.963 44.448 950.963 52.224C950.963 59.904 957.779 64.704 969.011 64.704C978.707 64.704 985.715 60.288 987.251 53.088L1008.28 56.352C1005.49 69.696 989.843 78.528 968.723 78.528Z" fill="url(#paint12_linear_413_370)"/>
<path d="M1020.96 76.992V5.376H1043.72V39.456H1043.81C1048.52 31.2 1057.06 25.824 1069.44 25.824C1085.19 25.824 1095.17 34.656 1095.08 48.96L1094.98 76.992H1072.42V51.36C1072.42 43.488 1067.52 38.784 1059.08 38.784C1049.48 38.784 1043.62 44.352 1043.62 53.76V76.992V87.072C1043.05 94.8637 1040.38 96.8903 1032.29 97.152H1020.96H1014.5H759.911V91.9922H1014.5C1019.51 91.7261 1021.18 90.3482 1020.96 84.4921V76.992Z" fill="url(#paint13_linear_413_370)"/>
<path d="M25.8819 78.528C10.1379 78.528 0.921875 73.536 0.921875 64.896C0.921875 55.008 12.9219 48.288 33.4659 46.368L52.3779 44.64C54.4899 44.448 55.7379 43.68 55.7379 42.72C55.7379 40.32 50.2659 38.496 41.9139 38.496C29.9139 38.496 16.4739 42.336 7.06588 48.384L1.11388 36.576C10.7139 30.048 26.2659 25.824 41.9139 25.824C63.7059 25.824 78.1059 32.736 78.1059 44.928V76.992H58.4259L55.3539 66.24H55.2579C50.3619 73.824 39.5139 78.528 25.8819 78.528ZM33.9459 65.088C46.8099 65.088 55.3539 60.96 55.3539 54.912V54.72L35.0019 56.544C27.6099 57.12 23.6739 58.56 23.6739 61.152C23.6739 63.648 27.2259 65.088 33.9459 65.088Z" stroke="#121717" mask="url(#path-1-inside-1_413_370)"/>
<path d="M117.415 78.624C101.671 78.624 91.6869 69.792 91.7829 55.488L91.8789 27.456H114.439V53.088C114.439 60.96 119.335 65.664 127.783 65.664C137.383 65.664 143.239 60.096 143.239 50.688V27.456H165.895V76.992H146.311L143.911 64.992H143.815C139.207 73.248 129.799 78.624 117.415 78.624Z" stroke="#121717" mask="url(#path-1-inside-1_413_370)"/>
<path d="M216.655 78.528C202.447 78.528 187.183 75.36 178.831 70.656L184.783 59.136C191.503 63.264 203.983 66.336 215.215 66.336C225.967 66.336 230.767 64.8 230.767 62.496C230.767 60.48 227.215 59.424 220.399 58.944L208.111 57.984C191.407 56.832 182.863 52.8 182.863 43.776C182.863 31.392 196.975 25.824 216.463 25.824C226.927 25.824 237.295 28.032 246.031 32.352L240.655 42.816C234.511 39.648 225.103 37.248 216.175 37.248C208.207 37.248 202.063 38.496 202.063 40.992C202.063 42.912 205.039 43.68 210.991 44.16L223.279 45.216C241.423 46.56 250.543 50.784 250.543 60.672C250.543 73.056 236.047 78.528 216.655 78.528Z" stroke="#121717" mask="url(#path-1-inside-1_413_370)"/>
<path d="M299.462 78.528C283.334 78.528 273.446 71.232 273.446 59.328L273.35 41.28H259.526V27.456H273.35V14.208L296.006 10.176V27.456H326.246V41.28H296.006V54.24C296.006 60.192 299.078 63.264 305.99 63.264C312.71 63.264 317.702 60.864 323.078 55.968L327.878 68.736C320.198 75.648 311.654 78.528 299.462 78.528Z" stroke="#121717" mask="url(#path-1-inside-1_413_370)"/>
<path d="M383.032 25.824C394.072 25.824 401.656 34.368 402.424 47.616L381.688 51.648C381.304 44.256 378.04 39.552 373.336 39.552C366.904 39.552 363.064 45.504 363.064 54.912V76.992H340.312V27.456H359.224L362.296 38.88H362.392C366.04 30.816 374.104 25.824 383.032 25.824Z" stroke="#121717" mask="url(#path-1-inside-1_413_370)"/>
<path d="M435.251 78.528C419.507 78.528 410.291 73.536 410.291 64.896C410.291 55.008 422.291 48.288 442.835 46.368L461.747 44.64C463.859 44.448 465.107 43.68 465.107 42.72C465.107 40.32 459.635 38.496 451.283 38.496C439.283 38.496 425.843 42.336 416.435 48.384L410.483 36.576C420.083 30.048 435.635 25.824 451.283 25.824C473.075 25.824 487.475 32.736 487.475 44.928V76.992H467.795L464.723 66.24H464.627C459.731 73.824 448.883 78.528 435.251 78.528ZM443.315 65.088C456.179 65.088 464.723 60.96 464.723 54.912V54.72L444.371 56.544C436.979 57.12 433.043 58.56 433.043 61.152C433.043 63.648 436.595 65.088 443.315 65.088Z" stroke="#121717" mask="url(#path-1-inside-1_413_370)"/>
<path d="M502.016 76.992V5.376H524.768V76.992H502.016Z" stroke="#121717" mask="url(#path-1-inside-1_413_370)"/>
<path d="M578.276 78.528C554.276 78.528 538.532 68.16 538.532 52.224C538.532 36.288 554.276 25.824 578.276 25.824C602.372 25.824 618.116 36.288 618.116 52.224C618.116 68.16 602.372 78.528 578.276 78.528ZM578.276 65.28C588.644 65.28 595.364 60.096 595.364 52.224C595.364 44.352 588.644 39.168 578.276 39.168C567.908 39.168 561.188 44.352 561.188 52.224C561.188 60.096 567.908 65.28 578.276 65.28Z" stroke="#121717" mask="url(#path-1-inside-1_413_370)"/>
<path d="M631.751 97.152V27.456H651.335L654.311 40.224H654.407C658.247 31.488 668.903 25.824 681.383 25.824C699.047 25.824 710.567 36.288 710.567 52.224C710.567 68.16 699.047 78.528 681.383 78.528C668.999 78.528 658.439 72.96 654.599 64.32H654.503V97.152H631.751ZM670.727 63.456C681.095 63.456 687.815 59.04 687.815 52.224C687.815 45.408 681.095 40.896 670.727 40.896C660.455 40.896 653.639 45.408 653.639 52.224C653.639 59.04 660.455 63.456 670.727 63.456Z" stroke="#121717" mask="url(#path-1-inside-1_413_370)"/>
<path d="M735.986 22.176C728.69 22.176 723.41 17.568 723.41 11.04C723.41 4.512 728.69 0 735.986 0C743.282 0 748.562 4.512 748.562 11.04C748.562 17.568 743.282 22.176 735.986 22.176ZM724.658 76.992V27.456H747.314V76.992H724.658Z" stroke="#121717" mask="url(#path-1-inside-1_413_370)"/>
<path d="M799.847 78.528C783.719 78.528 773.831 71.232 773.831 59.328L773.735 41.28H759.911V27.456H773.735V14.208L796.391 10.176V27.456H826.631V41.28H796.391V54.24C796.391 60.192 799.463 63.264 806.375 63.264C813.095 63.264 818.087 60.864 823.463 55.968L828.263 68.736C820.583 75.648 812.039 78.528 799.847 78.528Z" stroke="#121717" mask="url(#path-1-inside-1_413_370)"/>
<path d="M881.881 78.528C856.345 78.528 839.065 68.256 839.065 52.128C839.065 36.672 855.097 25.824 878.041 25.824C900.601 25.824 915.481 36.288 915.481 52.224C915.481 53.664 915.289 55.776 914.809 57.408H862.969C865.561 63.168 874.201 65.472 883.513 65.472C893.305 65.472 903.193 63.36 908.281 60.48L914.521 71.232C907.801 75.552 895.129 78.528 881.881 78.528ZM862.585 47.712H892.633C892.345 42.048 885.817 38.208 877.849 38.208C869.689 38.208 863.449 42.144 862.585 47.712Z" stroke="#121717" mask="url(#path-1-inside-1_413_370)"/>
<path d="M968.723 78.528C944.243 78.528 928.211 68.16 928.307 52.224C928.307 36.288 943.667 25.824 966.707 25.824C985.907 25.824 1000.02 33.504 1002.61 45.216L981.491 48.672C980.243 43.2 975.155 39.744 967.667 39.744C957.491 39.744 950.963 44.448 950.963 52.224C950.963 59.904 957.779 64.704 969.011 64.704C978.707 64.704 985.715 60.288 987.251 53.088L1008.28 56.352C1005.49 69.696 989.843 78.528 968.723 78.528Z" stroke="#121717" mask="url(#path-1-inside-1_413_370)"/>
<path d="M1020.96 76.992V5.376H1043.72V39.456H1043.81C1048.52 31.2 1057.06 25.824 1069.44 25.824C1085.19 25.824 1095.17 34.656 1095.08 48.96L1094.98 76.992H1072.42V51.36C1072.42 43.488 1067.52 38.784 1059.08 38.784C1049.48 38.784 1043.62 44.352 1043.62 53.76V76.992V87.072C1043.05 94.8637 1040.38 96.8903 1032.29 97.152H1020.96H1014.5H759.911V91.9922H1014.5C1019.51 91.7261 1021.18 90.3482 1020.96 84.4921V76.992Z" stroke="#121717" mask="url(#path-1-inside-1_413_370)"/>
<defs>
<linearGradient id="paint0_linear_413_370" x1="-7.5" y1="44.5001" x2="1097" y2="50.0001" gradientUnits="userSpaceOnUse">
<stop stop-color="#55BBBE"/>
<stop offset="1" stop-color="#BD77CD"/>
</linearGradient>
<linearGradient id="paint1_linear_413_370" x1="-7.5" y1="44.5001" x2="1097" y2="50.0001" gradientUnits="userSpaceOnUse">
<stop stop-color="#55BBBE"/>
<stop offset="1" stop-color="#BD77CD"/>
</linearGradient>
<linearGradient id="paint2_linear_413_370" x1="-7.5" y1="44.5001" x2="1097" y2="50.0001" gradientUnits="userSpaceOnUse">
<stop stop-color="#55BBBE"/>
<stop offset="1" stop-color="#BD77CD"/>
</linearGradient>
<linearGradient id="paint3_linear_413_370" x1="-7.5" y1="44.5001" x2="1097" y2="50.0001" gradientUnits="userSpaceOnUse">
<stop stop-color="#55BBBE"/>
<stop offset="1" stop-color="#BD77CD"/>
</linearGradient>
<linearGradient id="paint4_linear_413_370" x1="-7.5" y1="44.5001" x2="1097" y2="50.0001" gradientUnits="userSpaceOnUse">
<stop stop-color="#55BBBE"/>
<stop offset="1" stop-color="#BD77CD"/>
</linearGradient>
<linearGradient id="paint5_linear_413_370" x1="-7.5" y1="44.5001" x2="1097" y2="50.0001" gradientUnits="userSpaceOnUse">
<stop stop-color="#55BBBE"/>
<stop offset="1" stop-color="#BD77CD"/>
</linearGradient>
<linearGradient id="paint6_linear_413_370" x1="-7.5" y1="44.5001" x2="1097" y2="50.0001" gradientUnits="userSpaceOnUse">
<stop stop-color="#55BBBE"/>
<stop offset="1" stop-color="#BD77CD"/>
</linearGradient>
<linearGradient id="paint7_linear_413_370" x1="-7.5" y1="44.5001" x2="1097" y2="50.0001" gradientUnits="userSpaceOnUse">
<stop stop-color="#55BBBE"/>
<stop offset="1" stop-color="#BD77CD"/>
</linearGradient>
<linearGradient id="paint8_linear_413_370" x1="-7.5" y1="44.5001" x2="1097" y2="50.0001" gradientUnits="userSpaceOnUse">
<stop stop-color="#55BBBE"/>
<stop offset="1" stop-color="#BD77CD"/>
</linearGradient>
<linearGradient id="paint9_linear_413_370" x1="-7.5" y1="44.5001" x2="1097" y2="50.0001" gradientUnits="userSpaceOnUse">
<stop stop-color="#55BBBE"/>
<stop offset="1" stop-color="#BD77CD"/>
</linearGradient>
<linearGradient id="paint10_linear_413_370" x1="-7.5" y1="44.5001" x2="1097" y2="50.0001" gradientUnits="userSpaceOnUse">
<stop stop-color="#55BBBE"/>
<stop offset="1" stop-color="#BD77CD"/>
</linearGradient>
<linearGradient id="paint11_linear_413_370" x1="-7.5" y1="44.5001" x2="1097" y2="50.0001" gradientUnits="userSpaceOnUse">
<stop stop-color="#55BBBE"/>
<stop offset="1" stop-color="#BD77CD"/>
</linearGradient>
<linearGradient id="paint12_linear_413_370" x1="-7.5" y1="44.5001" x2="1097" y2="50.0001" gradientUnits="userSpaceOnUse">
<stop stop-color="#55BBBE"/>
<stop offset="1" stop-color="#BD77CD"/>
</linearGradient>
<linearGradient id="paint13_linear_413_370" x1="-7.5" y1="44.5001" x2="1097" y2="50.0001" gradientUnits="userSpaceOnUse">
<stop stop-color="#55BBBE"/>
<stop offset="1" stop-color="#BD77CD"/>
</linearGradient>
</defs>
</svg>
