<svg width="32" height="24" viewBox="0 0 32 24" fill="none" xmlns="http://www.w3.org/2000/svg">
<g clip-path="url(#clip0_290_8173)">
<mask id="mask0_290_8173" style="mask-type:alpha" maskUnits="userSpaceOnUse" x="0" y="0" width="32" height="24">
<path d="M0 2C0 1.46957 0.210714 0.960858 0.585787 0.585786C0.96086 0.210713 1.46957 0 2 0H30C30.5304 0 31.0391 0.210713 31.4142 0.585786C31.7893 0.960858 32 1.46957 32 2C32 2.53043 31.7893 3.03914 31.4142 3.41421C31.0391 3.78929 30.5304 4 30 4H2C1.46957 4 0.96086 3.78929 0.585787 3.41421C0.210714 3.03914 0 2.53043 0 2ZM0 12C0 11.4696 0.210714 10.9609 0.585787 10.5858C0.96086 10.2107 1.46957 10 2 10H30C30.5304 10 31.0391 10.2107 31.4142 10.5858C31.7893 10.9609 32 11.4696 32 12C32 12.5304 31.7893 13.0391 31.4142 13.4142C31.0391 13.7893 30.5304 14 30 14H2C1.46957 14 0.96086 13.7893 0.585787 13.4142C0.210714 13.0391 0 12.5304 0 12ZM0 22C0 21.4696 0.210714 20.9609 0.585787 20.5858C0.96086 20.2107 1.46957 20 2 20H30C30.2626 20 30.5227 20.0517 30.7654 20.1522C31.008 20.2528 31.2285 20.4001 31.4142 20.5858C31.5999 20.7715 31.7472 20.992 31.8478 21.2346C31.9483 21.4773 32 21.7374 32 22C32 22.2626 31.9483 22.5227 31.8478 22.7654C31.7472 23.008 31.5999 23.2285 31.4142 23.4142C31.2285 23.5999 31.008 23.7472 30.7654 23.8478C30.5227 23.9483 30.2626 24 30 24H2C1.46957 24 0.96086 23.7893 0.585787 23.4142C0.210714 23.0391 0 22.5304 0 22Z" fill="#A58FAE"/>
</mask>
<g mask="url(#mask0_290_8173)">
<rect x="-77" y="-34" width="150.879" height="102.589" rx="15" fill="url(#paint0_linear_290_8173)"/>
</g>
</g>
<defs>
<linearGradient id="paint0_linear_290_8173" x1="-4.32139" y1="-6.79728" x2="29.9654" y2="30.1269" gradientUnits="userSpaceOnUse">
<stop stop-color="#2FC2C5"/>
<stop offset="1" stop-color="#905F9B"/>
</linearGradient>
<clipPath id="clip0_290_8173">
<rect width="32" height="24" fill="white"/>
</clipPath>
</defs>
</svg>
