<svg xmlns="http://www.w3.org/2000/svg" width="48" height="48" viewBox="0 0 48 48" fill="none">
  <mask id="mask0_341_4360" style="mask-type:alpha" maskUnits="userSpaceOnUse" x="8" y="12" width="32" height="24">
    <path d="M8 14C8 13.4696 8.21071 12.9609 8.58579 12.5858C8.96086 12.2107 9.46957 12 10 12H38C38.5304 12 39.0391 12.2107 39.4142 12.5858C39.7893 12.9609 40 13.4696 40 14C40 14.5304 39.7893 15.0391 39.4142 15.4142C39.0391 15.7893 38.5304 16 38 16H10C9.46957 16 8.96086 15.7893 8.58579 15.4142C8.21071 15.0391 8 14.5304 8 14ZM8 24C8 23.4696 8.21071 22.9609 8.58579 22.5858C8.96086 22.2107 9.46957 22 10 22H38C38.5304 22 39.0391 22.2107 39.4142 22.5858C39.7893 22.9609 40 23.4696 40 24C40 24.5304 39.7893 25.0391 39.4142 25.4142C39.0391 25.7893 38.5304 26 38 26H10C9.46957 26 8.96086 25.7893 8.58579 25.4142C8.21071 25.0391 8 24.5304 8 24ZM8 34C8 33.4696 8.21071 32.9609 8.58579 32.5858C8.96086 32.2107 9.46957 32 10 32H38C38.2626 32 38.5227 32.0517 38.7654 32.1522C39.008 32.2527 39.2285 32.4001 39.4142 32.5858C39.5999 32.7715 39.7472 32.992 39.8478 33.2346C39.9483 33.4773 40 33.7374 40 34C40 34.2626 39.9483 34.5227 39.8478 34.7654C39.7472 35.008 39.5999 35.2285 39.4142 35.4142C39.2285 35.5999 39.008 35.7472 38.7654 35.8478C38.5227 35.9483 38.2626 36 38 36H10C9.46957 36 8.96086 35.7893 8.58579 35.4142C8.21071 35.0391 8 34.5304 8 34Z" fill="#A58FAE"/>
  </mask>
  <g mask="url(#mask0_341_4360)">
    <rect x="-69" y="-22" width="150.879" height="102.589" rx="15" fill="url(#paint0_linear_341_4360)"/>
  </g>
  <defs>
    <linearGradient id="paint0_linear_341_4360" x1="3.67861" y1="5.20272" x2="37.9654" y2="42.1269" gradientUnits="userSpaceOnUse">
      <stop stop-color="#2FC2C5"/>
      <stop offset="1" stop-color="#905F9B"/>
    </linearGradient>
  </defs>
</svg>