<svg fill="none" width="100%" xmlns="http://www.w3.org/2000/svg" style="-webkit-print-color-adjust:exact" viewBox="1333.25 998.5 57.5 53" height="100%"><path style="fill:none" d="M1362 1011.5h4.5m-4.5 9h4.5m-22.5 9h22.5m-22.5 9h22.5m9-27h10.125a3.376 3.376 0 0 1 3.375 3.375V1043a6.75 6.75 0 0 1-6.75 6.75m-6.75-38.25v31.5a6.75 6.75 0 0 0 6.75 6.75m-6.75-38.25v-7.875a3.376 3.376 0 0 0-3.375-3.375h-33.75a3.376 3.376 0 0 0-3.375 3.375V1043a6.75 6.75 0 0 0 6.75 6.75h40.5M1344 1011.5h9v9h-9v-9Z" class="fills"/><g class="strokes"><path stroke-linecap="round" stroke-linejoin="round" style="fill:none;fill-opacity:none;stroke-width:3.5;stroke:#bababa;stroke-opacity:1" d="M1362 1011.5h4.5m-4.5 9h4.5m-22.5 9h22.5m-22.5 9h22.5m9-27h10.125a3.376 3.376 0 0 1 3.375 3.375V1043a6.75 6.75 0 0 1-6.75 6.75m-6.75-38.25v31.5a6.75 6.75 0 0 0 6.75 6.75m-6.75-38.25v-7.875a3.376 3.376 0 0 0-3.375-3.375h-33.75a3.376 3.376 0 0 0-3.375 3.375V1043a6.75 6.75 0 0 0 6.75 6.75h40.5M1344 1011.5h9v9h-9v-9Z" class="stroke-shape"/></g></svg>