<svg fill="none" width="100%" xmlns="http://www.w3.org/2000/svg" style="-webkit-print-color-adjust:exact" viewBox="1418.719 1004.344 53.5 50.562" height="100%"><path style="fill:none" d="M1452.476 1015.735c0-.892.496-1.699 1.069-2.41.59-.729.931-1.593.931-2.52 0-2.603-2.686-4.711-6.001-4.711-3.316 0-6.002 2.11-6.002 4.711 0 .927.342 1.791.931 2.52.574.711 1.07 1.518 1.07 2.41.002.435-.183.853-.513 1.157-.33.304-.778.47-1.24.458-3.711-.1-7.415-.352-11.103-.754.496 4.053.781 8.166.84 12.33.005.441-.178.865-.508 1.179-.33.313-.779.488-1.247.487-.947 0-1.803-.468-2.558-1.008a4.57 4.57 0 0 0-2.675-.877c-2.763 0-5.001 2.53-5.001 5.654 0 3.123 2.24 5.653 5.001 5.653.984 0 1.902-.322 2.675-.877.755-.54 1.611-1.007 2.558-1.007.827 0 1.48.653 1.419 1.432-.332 4.26-.903 8.5-1.712 12.703 4.048.478 8.156.777 12.311.89a1.77 1.77 0 0 0 1.24-.458c.33-.305.515-.722.513-1.158 0-.892-.496-1.698-1.07-2.409a3.994 3.994 0 0 1-.931-2.52c0-2.601 2.689-4.712 6.002-4.712 3.315 0 6.001 2.111 6.001 4.712 0 .927-.341 1.791-.931 2.52-.573.711-1.067 1.517-1.067 2.409 0 .837.739 1.505 1.627 1.458 4.853-.269 9.686-.798 14.475-1.583.725-3.924 1.243-7.88 1.553-11.852a1.296 1.296 0 0 0-.379-1.009 1.46 1.46 0 0 0-1.043-.423c-.947 0-1.803.467-2.558 1.007a4.565 4.565 0 0 1-2.675.877c-2.761 0-5.001-2.53-5.001-5.653 0-3.124 2.24-5.654 5.001-5.654.987 0 1.902.322 2.675.877.755.54 1.611 1.008 2.561 1.008.468.001.917-.174 1.247-.487.33-.314.513-.738.508-1.179a114.777 114.777 0 0 0-.987-13.468 135.831 135.831 0 0 1-15.379 1.731 1.593 1.593 0 0 1-1.148-.397 1.408 1.408 0 0 1-.479-1.057Z" class="fills"/><g class="strokes"><path stroke-linecap="round" stroke-linejoin="round" style="fill:none;fill-opacity:none;stroke-width:3.5;stroke:#bababa;stroke-opacity:1" d="M1452.476 1015.735c0-.892.496-1.699 1.069-2.41.59-.729.931-1.593.931-2.52 0-2.603-2.686-4.711-6.001-4.711-3.316 0-6.002 2.11-6.002 4.711 0 .927.342 1.791.931 2.52.574.711 1.07 1.518 1.07 2.41h0c.002.435-.183.853-.513 1.157-.33.304-.778.47-1.24.458-3.711-.1-7.415-.352-11.103-.754.496 4.053.781 8.166.84 12.33.005.441-.178.865-.508 1.179-.33.313-.779.488-1.247.487h0c-.947 0-1.803-.468-2.558-1.008a4.57 4.57 0 0 0-2.675-.877c-2.763 0-5.001 2.53-5.001 5.654 0 3.123 2.24 5.653 5.001 5.653.984 0 1.902-.322 2.675-.877.755-.54 1.611-1.007 2.558-1.007h0c.827 0 1.48.653 1.419 1.432-.332 4.26-.903 8.5-1.712 12.703 4.048.478 8.156.777 12.311.89a1.77 1.77 0 0 0 1.24-.458c.33-.305.515-.722.513-1.158h0c0-.892-.496-1.698-1.07-2.409a3.994 3.994 0 0 1-.931-2.52c0-2.601 2.689-4.712 6.002-4.712 3.315 0 6.001 2.111 6.001 4.712 0 .927-.341 1.791-.931 2.52-.573.711-1.067 1.517-1.067 2.409h0c0 .837.739 1.505 1.627 1.458 4.853-.269 9.686-.798 14.475-1.583.725-3.924 1.243-7.88 1.553-11.852a1.296 1.296 0 0 0-.379-1.009 1.46 1.46 0 0 0-1.043-.423h0c-.947 0-1.803.467-2.558 1.007a4.565 4.565 0 0 1-2.675.877c-2.761 0-5.001-2.53-5.001-5.653 0-3.124 2.24-5.654 5.001-5.654.987 0 1.902.322 2.675.877.755.54 1.611 1.008 2.561 1.008h0c.468.001.917-.174 1.247-.487.33-.314.513-.738.508-1.179a114.777 114.777 0 0 0-.987-13.468 135.831 135.831 0 0 1-15.379 1.731 1.593 1.593 0 0 1-1.148-.397 1.408 1.408 0 0 1-.479-1.057Zh0Z" class="stroke-shape"/></g></svg>